<svg width="17" height="16" viewBox="0 0 17 16" fill="none" xmlns="http://www.w3.org/2000/svg">
<mask id="mask0_2_13" style="mask-type:luminance" maskUnits="userSpaceOnUse" x="0" y="0" width="17" height="16">
<path d="M0 0.251678H17V16H0V0.251678Z" fill="white"/>
</mask>
<g mask="url(#mask0_2_13)">
<path d="M11.8329 0.276691C13.4305 0.110185 13.1651 0.955838 13.38 1.03971C13.3973 1.08687 13.4305 1.32843 13.4297 1.36082C13.4188 1.39691 13.3766 1.41045 13.3466 1.42767C13.3407 1.45618 13.3357 1.48611 13.3177 1.5099C13.3046 1.53225 13.2802 1.55317 13.2878 1.58188C13.3411 1.88556 12.9312 1.83861 13.0534 2.05351C13.0823 2.01803 13.1077 1.97312 13.1553 1.96C13.2931 1.93355 13.5568 1.99773 13.5681 2.00101C13.8498 2.10949 13.8802 2.24339 14.0069 2.37503C14.0504 2.41933 14.0344 2.4913 14.0748 2.53703C14.2316 2.74065 14.1566 2.63771 14.1945 2.7628C14.2148 2.88624 14.2724 2.8766 14.2495 3.00497C14.2439 3.02937 14.2546 3.25616 14.2608 3.28056C14.3145 3.5783 14.2343 3.95786 14.3089 4.14201C14.3254 4.22177 14.28 4.29477 14.2739 4.37269C14.2962 4.38274 14.3149 4.39874 14.3264 4.42068C14.3204 4.42273 14.3083 4.42683 14.3022 4.42908C14.3026 4.43483 14.3032 4.44631 14.3036 4.45185C14.3942 4.51357 14.3526 4.69115 14.3713 4.75984C14.4215 5.01391 14.3813 4.72047 14.3649 5.21794C14.3752 5.54869 14.3204 5.54111 14.3292 5.72032C14.3344 6.00535 14.2423 6.16817 14.0454 6.5752C14.0003 6.66707 14.0619 6.67138 13.9403 6.78764C13.9282 6.82701 13.9501 6.86762 13.946 6.90781C13.9019 7.25989 14.0266 7.00541 13.556 7.6698C13.5062 7.67082 13.5269 7.6659 13.3913 7.75551C13.4537 7.87629 13.4889 7.88839 13.5205 7.93063C13.4975 7.94006 13.4738 7.94826 13.4491 7.95216C13.4282 7.93719 13.418 7.91156 13.4034 7.89126C13.3819 7.85435 13.3421 7.83343 13.3206 7.79673C13.2201 7.84696 13.1176 7.89433 13.0226 7.95503C13.2658 8.05674 14.6543 8.22693 14.7441 8.37478C14.7648 8.45496 14.6319 8.43753 14.5964 8.51504C14.5722 8.56323 14.1607 8.56179 14.0643 8.56733C14.1084 8.60219 14.7027 8.6026 14.7127 8.60219C14.7716 8.60055 14.8249 8.57204 14.8757 8.54498C14.9032 8.53206 14.9059 8.48264 14.942 8.48797C14.9522 8.49023 15.7739 8.68954 15.9377 8.76562C15.9699 8.77936 16.0054 8.77772 16.0396 8.77833C16.0421 8.78346 16.0468 8.79412 16.0491 8.79945C16.1161 8.79658 16.5646 8.95304 16.5748 8.95345C16.5775 8.95817 16.5828 8.9678 16.5855 8.97252C16.6054 8.97252 16.6255 8.97252 16.6454 8.9717C16.6468 8.97642 16.6497 8.98605 16.6511 8.99056C16.744 9.00102 16.8402 9.06685 16.8756 9.07197C16.9263 9.08489 16.986 9.11134 16.9997 9.16691C16.9166 9.47429 15.3613 9.17942 15.0681 9.17635C15.0746 9.19849 15.081 9.22105 15.0878 9.2434C15.0754 9.25837 15.0613 9.27272 15.0572 9.29241C15.0291 9.3976 14.9438 9.43779 14.9114 9.51038C14.9703 9.5153 15.0287 9.50341 15.0851 9.48824C15.1247 9.49562 15.1462 9.53314 15.1525 9.56985C15.1991 9.57826 15.2309 9.64941 15.2368 9.69965C15.2848 9.69432 15.3348 9.67955 15.3808 9.70334C15.364 9.7218 15.3459 9.73923 15.3303 9.75871C15.3449 9.75645 15.3597 9.75378 15.3746 9.75112C15.4095 9.82125 15.4224 9.90225 15.4095 9.97976C15.3824 10.0579 15.3584 10.0536 15.2889 10.0605C15.2465 10.1108 15.2563 10.1891 15.2028 10.2322C15.1279 10.2812 12.4302 10.5094 12.412 10.5154C11.4948 10.7397 11.7029 10.3263 11.6574 11.0711C11.7474 11.0776 11.7144 11.075 11.7765 11.1199C11.9543 11.1644 11.8185 11.1537 11.9535 11.1785C11.9789 11.18 11.992 11.206 12.0142 11.2156C12.0261 11.2165 12.0382 11.2171 12.0505 11.2171C12.0478 11.1642 12.0123 11.1414 12.1058 11.0709C12.2563 10.9548 12.2949 11.0071 12.3287 11.0272C12.3511 11.0159 12.3728 11.0034 12.3929 10.9884C12.3878 10.9607 12.3771 10.9279 12.3974 10.9039C12.4448 10.8467 12.5602 10.8092 12.5947 10.8158C12.6119 10.8246 12.6256 10.8398 12.6441 10.8467C12.6837 10.833 12.7337 10.8215 12.7536 10.7805C12.7821 10.7108 12.9666 10.6585 13.053 10.7407C13.0698 10.7596 13.0938 10.7586 13.1165 10.7534C13.1518 10.6417 13.2498 10.6167 13.3579 10.6378C13.3735 10.6499 13.3794 10.67 13.3889 10.6866C13.6167 10.6903 13.547 10.5898 13.7688 10.6501C13.7877 10.655 13.7947 10.6759 13.8061 10.6899C13.8277 10.689 13.8492 10.6882 13.8709 10.6882C13.857 10.7038 13.8429 10.7192 13.8301 10.7358C13.8566 10.7444 13.8927 10.7602 13.9156 10.736C13.9901 10.6632 14.094 10.6694 14.1504 10.7169C14.1863 10.7487 14.2435 10.7454 14.2731 10.786C14.2835 10.8057 14.2862 10.8301 14.3048 10.8455C14.3342 10.8141 14.3768 10.7842 14.4219 10.7992C14.5755 10.864 14.5552 10.8644 14.5735 10.9255C14.6001 10.9536 14.6278 10.9808 14.6557 11.0079C14.7387 10.938 14.8128 10.9651 14.8923 11.0393C14.896 11.0735 14.8624 11.1061 14.8866 11.1387C15.0279 11.1566 14.9627 11.1443 15.0404 11.2076C15.0648 11.2078 15.0884 11.1992 15.113 11.1992C15.1608 11.2124 15.1958 11.2505 15.227 11.2872C15.2616 11.3202 15.2065 11.3625 15.2126 11.3856C15.235 11.4069 15.2655 11.4137 15.2951 11.4203C15.3342 11.4264 15.3469 11.4754 15.3859 11.482C15.4056 11.4853 15.4261 11.4849 15.4458 11.49C15.4665 11.5025 15.5661 11.6067 15.5746 11.676C15.5686 11.7012 15.5489 11.7207 15.5395 11.7447C15.5405 11.7676 15.5612 11.7843 15.5766 11.7996C15.6334 11.8345 15.7134 11.7584 15.7689 11.9124C15.7763 11.9307 15.7556 11.9436 15.7478 11.9577C15.7616 12.0576 15.7259 12.0773 15.7847 12.1095C15.8141 12.1199 15.8479 12.1041 15.8758 12.122C15.8838 12.1322 15.9543 12.2503 15.9576 12.2723C15.9582 12.3043 15.9238 12.3367 15.9478 12.3672C15.9672 12.3953 15.9804 12.4271 15.9863 12.4609C15.9658 12.4855 15.9578 12.5163 15.9553 12.5477C15.9898 12.5637 16.0285 12.5606 16.0646 12.5659C16.0872 12.5959 16.0899 12.6383 16.1003 12.6744C16.1132 12.7142 16.0669 12.7326 16.0431 12.7542C16.0579 12.7673 16.0741 12.779 16.0886 12.7927C16.1122 12.8384 16.1245 12.8987 16.0911 12.9432C16.1672 12.981 16.1924 12.9547 16.1946 13.1772C16.1639 13.1879 16.1175 13.1916 16.1157 13.2336C16.104 13.2654 16.1422 13.2758 16.1569 13.2965C16.1698 13.3185 16.1797 13.3429 16.1981 13.3613C16.226 13.3864 16.2223 13.5006 16.2018 13.5307C16.1633 13.5701 16.1095 13.5541 16.1061 13.6384C16.1298 13.6708 16.1916 13.6755 16.1873 13.7259C16.1711 14.0518 16.1061 13.9779 16.0292 14.0903C16.0564 14.1203 16.0831 14.1514 16.1007 14.1883C16.0981 14.393 15.9486 14.3538 15.899 14.4943C15.894 14.5361 15.9441 14.5583 15.9476 14.5976C15.9324 14.7473 15.8007 14.7447 15.7698 14.7524C15.7624 14.7789 15.746 14.8015 15.7372 14.8273C15.7427 14.8521 15.7607 14.8753 15.7548 14.9021C15.7429 14.9651 15.681 15.0877 15.554 15.0746C15.4872 15.431 15.252 15.3576 15.2134 15.3656C15.196 15.4097 15.2219 15.4652 15.1854 15.5015C15.1243 15.5772 14.9951 15.6383 14.9141 15.5794C14.8932 15.5919 14.8657 15.5973 14.8503 15.6172C14.8478 15.6703 14.8874 15.7033 14.7818 15.7585C14.7404 15.7771 14.6963 15.7972 14.6497 15.7915C14.6327 15.7841 14.621 15.7691 14.6057 15.7599C14.4777 15.7597 14.5156 15.8772 14.3967 15.9001C14.1958 15.9352 14.221 15.8542 14.1299 15.8604C14.1148 15.885 14.1066 15.9139 14.0879 15.9362C14.0243 15.9947 13.8869 15.9885 13.865 15.9608C13.8543 15.9387 13.8576 15.909 13.8388 15.8917C13.8086 15.8868 13.7783 15.8899 13.7481 15.8917C13.6688 16.0197 13.5033 15.9756 13.4563 15.9504C13.4329 15.9266 13.4176 15.8954 13.4042 15.8653C13.3794 15.8622 13.3536 15.8481 13.3292 15.8561C13.2453 15.9428 13.255 15.9328 13.1336 15.9188C13.1014 15.9149 13.077 15.8911 13.0616 15.8643C12.9033 15.8591 12.9929 15.7574 12.9408 15.7455C12.8725 15.8085 12.8596 15.8645 12.6798 15.7404C12.6515 15.723 12.666 15.6867 12.6691 15.6602C12.6345 15.6465 12.6111 15.6178 12.5842 15.5944C12.5346 15.5858 12.4878 15.7181 12.3207 15.5534C12.3299 15.5257 12.3593 15.4956 12.3412 15.466C12.3297 15.4384 12.2945 15.4462 12.2709 15.441C12.2379 15.4394 12.2168 15.4103 12.193 15.3914C12.1585 15.3971 12.0845 15.4402 11.9844 15.2856C11.9795 15.2544 12.0055 15.2294 12.0127 15.2009C12.0029 15.1418 11.9561 15.206 11.8655 15.1064C11.8364 15.1086 11.8052 15.1144 11.7779 15.1008C11.7289 15.0504 11.6608 14.9345 11.6565 14.9245C11.6693 14.896 11.6918 14.874 11.7088 14.8484C11.6891 14.8281 11.6795 14.793 11.6483 14.7883C11.6092 14.7736 11.5643 14.8039 11.5296 14.7736C11.4277 14.6596 11.4728 14.6395 11.4935 14.6085C11.4868 14.5956 11.4798 14.5827 11.4736 14.5699C11.481 14.5562 11.4886 14.5427 11.4964 14.5293C11.4829 14.5099 11.4697 14.4904 11.4554 14.4715C11.4291 14.4732 11.3998 14.4898 11.3754 14.4787C11.3254 14.4256 11.279 14.3612 11.2731 14.2861C11.2903 14.274 11.3071 14.2613 11.3213 14.2458C11.2837 14.2177 11.2304 14.1424 11.2956 14.0606C11.2641 14.0524 11.2315 14.0524 11.1993 14.0503C11.1636 14.0516 11.1367 13.9378 11.1402 13.8818C11.1636 13.865 11.1872 13.8477 11.2071 13.8264C11.1039 13.7694 11.1537 13.6661 11.1615 13.6402C11.1367 13.6359 11.1113 13.6345 11.0869 13.6279C11.0656 13.6138 11.035 13.5209 11.0723 13.4188C11.0889 13.3978 11.1242 13.4013 11.1402 13.3782C11.1652 13.3117 11.1193 13.33 11.1033 13.275C11.0922 13.2209 10.9901 13.2436 11.0475 13.0693C11.0791 13.0158 11.1312 13.0443 11.1527 12.9533C11.1254 12.9424 11.0933 12.9356 11.0764 12.9092C11.0639 12.8862 11.052 12.7374 11.0865 12.6658C11.1 12.64 11.2216 12.567 11.23 12.4823C11.098 12.441 11.1663 12.3488 11.1896 12.2821C11.1058 12.2143 11.0133 12.1575 10.9284 12.0904C10.9175 12.0795 10.9019 12.0873 10.889 12.0879C10.9097 12.1671 11.0084 12.3303 10.6507 12.4015C10.476 12.3832 10.4974 12.2596 10.465 12.2097C10.4582 12.1997 10.1957 11.8903 10.1149 11.8724C10.0903 11.878 10.0708 11.895 10.0493 11.9071C10.0331 11.8981 10.0171 11.889 10.0015 11.8794C9.92566 11.9081 9.75546 11.8644 9.63694 11.8737C9.60208 11.8769 9.57276 11.854 9.54077 11.845C9.4001 11.856 9.46018 11.8123 9.37837 11.8681C9.32136 11.9186 9.23708 11.9819 9.00434 11.9465C8.81651 11.9378 8.78678 11.8562 8.78063 11.7863C8.73654 11.7422 8.68794 11.6985 8.62581 11.6819C8.59074 11.6762 8.59074 11.6346 8.56737 11.6165C8.52656 11.6007 8.24789 11.4558 8.17099 11.4502C8.14167 11.4543 8.1105 11.4699 8.08282 11.4512C7.85726 11.3178 7.50743 11.3005 7.28905 10.7686C7.18242 10.4764 7.17934 9.81202 7.34831 9.72036C7.34646 9.57559 7.35056 9.43082 7.34646 9.28626C7.16089 9.17265 7.10183 8.96288 7.17134 8.78141C7.18754 8.72645 7.22363 8.68072 7.24906 8.63028C7.20948 8.35038 7.23532 8.19392 7.2345 8.11456C6.75713 8.10882 7.0721 7.83405 6.60785 7.09256C6.60108 7.08231 6.4682 6.87848 6.45549 6.84875C6.43499 6.85962 6.41345 6.86905 6.39418 6.88238C6.3829 6.89694 6.37552 6.91416 6.36465 6.92913C6.35132 6.93774 6.3341 6.93713 6.31913 6.94123C6.31646 6.95435 6.31421 6.96789 6.31072 6.98101C6.29801 6.99496 6.27914 7.00049 6.26294 7.0091C6.24141 7.0778 6.22624 7.03453 6.17641 7.12517C6.1639 7.12783 6.15139 7.13091 6.13909 7.13378C6.13376 7.15059 6.12986 7.16843 6.12084 7.18402C6.10731 7.19427 6.09049 7.19858 6.07532 7.20534C6.04456 7.26317 5.88605 7.37759 5.87252 7.38641C5.86247 7.39646 5.76937 7.49304 5.74579 7.50821C5.71975 7.54 5.68304 7.56071 5.65946 7.59454C5.63691 7.6132 5.39637 7.85209 5.33834 7.90151C5.37874 7.92612 5.40622 7.96836 5.4216 8.01245C5.43328 8.0391 5.40478 8.05694 5.39473 8.07827C5.39145 8.09898 5.40396 8.11723 5.41155 8.13548C5.47614 8.26733 5.45564 8.24785 5.55529 8.26795C5.65639 8.48551 5.47204 8.35961 5.61886 8.57984C5.63629 8.60936 5.6814 8.60403 5.69678 8.63602C5.7177 8.67683 5.73431 8.73363 5.69617 8.76972C5.73308 8.80519 5.74805 8.85687 5.73902 8.90731C5.72898 8.92208 5.71298 8.9313 5.69945 8.94258C5.71708 8.96801 5.75071 8.97088 5.77245 8.99056C5.79275 9.03342 5.81572 9.09473 5.77429 9.13287C5.84504 9.29159 5.75727 9.27887 5.75912 9.31804C5.7827 9.33875 5.82248 9.34716 5.82904 9.38243C5.86144 9.55673 5.74743 9.45174 5.75625 9.67463C5.77286 9.71093 5.82084 9.72795 5.82515 9.77162C5.83048 9.98386 5.71934 9.81735 5.71524 10.045C5.73267 10.1042 5.83397 10.1169 5.70478 10.2726C5.69022 10.3044 5.68591 10.34 5.67012 10.3716C5.65516 10.3872 5.6328 10.3934 5.61496 10.405C5.67587 10.5266 5.70478 10.4467 5.53848 10.71C5.52371 10.7208 5.50587 10.726 5.48927 10.7331C5.48393 10.7772 5.52987 10.8121 5.51264 10.8566C5.46732 10.9808 5.39432 10.9605 5.36582 10.9776C5.34265 11.0036 5.32419 11.0342 5.30861 11.0653C5.308 11.1289 5.36746 11.151 5.25181 11.2655C5.22782 11.2882 5.19419 11.2802 5.16569 11.2749C5.13062 11.3018 5.10335 11.3362 5.07628 11.3707C5.08592 11.4018 5.146 11.4543 4.98811 11.5488C4.94935 11.5609 4.94423 11.5337 4.81873 11.6202C4.8216 11.6501 4.82714 11.6813 4.81791 11.7108C4.62946 11.8956 4.70738 11.719 4.54437 11.8417C4.50889 11.8667 4.55031 11.9239 4.46316 11.9706C4.43384 11.9858 4.40493 12.0049 4.3713 12.008C4.34977 12.0039 4.33295 11.9877 4.31204 11.9819C4.14635 12.0113 4.21115 12.0857 4.16419 12.1218C4.12441 12.1482 4.07704 12.1745 4.02742 12.1636C4.00855 12.1534 3.99358 12.1378 3.97513 12.1271C3.75961 12.1421 3.9091 12.2676 3.68251 12.2758C3.64601 12.276 3.63371 12.2346 3.60439 12.2216C3.58081 12.2329 3.56358 12.2563 3.53713 12.2616C3.43316 12.2895 3.47233 12.2989 3.41738 12.3236C3.25928 12.3773 3.2925 12.2899 3.2482 12.2709C3.22811 12.277 3.21273 12.2924 3.19366 12.3008C3.16475 12.3153 3.13071 12.303 3.10097 12.3131C3.06919 12.3344 3.0128 12.3904 2.90801 12.334C2.89756 12.319 2.8951 12.3006 2.88976 12.284C2.84137 12.2766 2.79359 12.2665 2.7452 12.2598C2.72613 12.2807 2.71034 12.3049 2.69004 12.3248C2.53133 12.3644 2.53666 12.2497 2.49893 12.2259C2.45566 12.22 2.41321 12.2095 2.37015 12.204C2.3439 12.2151 2.32442 12.2378 2.299 12.2508C2.25286 12.2557 2.2059 12.2374 2.1692 12.2106C2.15935 12.1864 2.15689 12.1603 2.15054 12.1353C2.13331 12.1435 2.1167 12.1544 2.09804 12.1593C2.05416 12.1513 2.00843 12.1386 1.97542 12.1068C1.89709 12.1447 1.83434 12.1019 1.8167 12.0752C1.81178 12.0482 1.81301 12.0203 1.80625 11.9934C1.78984 12.002 1.77446 12.0141 1.7556 12.0172C1.70782 12.0139 1.66578 11.984 1.63913 11.9454C1.61985 11.9501 1.60222 11.9602 1.58294 11.9643C1.54275 11.9563 1.50891 11.9309 1.47775 11.9056C1.47754 11.8784 1.48082 11.8507 1.47549 11.824C1.29197 11.6735 1.32888 11.7654 1.26162 11.7588C1.22737 11.7447 1.19559 11.7223 1.17344 11.6926C1.14535 11.589 1.23906 11.6401 1.04528 11.4941C1.01473 11.4945 0.98356 11.5236 0.955057 11.5013C0.925939 11.4791 0.890055 11.4564 0.882878 11.4178C0.886159 11.3949 0.898052 11.3743 0.905434 11.3526C0.829973 11.3506 0.856015 11.3688 0.772557 11.2827C0.777068 11.2636 0.781375 11.2443 0.785886 11.2255C0.758408 11.2255 0.730931 11.2263 0.703453 11.2269C0.678231 11.1972 0.646037 11.1693 0.634759 11.1314C0.643372 11.1053 0.658341 11.0821 0.667363 11.0565C0.648498 11.0586 0.629223 11.0657 0.610153 11.0618C0.585546 11.0413 0.56504 11.0143 0.553762 10.9839C0.552532 10.9599 0.557863 10.9359 0.558273 10.9119C0.534692 10.9132 0.509265 10.9251 0.486093 10.9167C0.457796 10.889 0.43565 10.8531 0.424577 10.815C0.429088 10.7875 0.453694 10.7676 0.457386 10.7399C0.455335 10.7268 0.403046 10.6181 0.394228 10.6056C0.367981 10.5705 0.306054 10.5933 0.287804 10.549C0.20004 10.3864 0.348706 10.5094 0.246588 10.2367C0.217264 10.2307 0.18302 10.2305 0.162309 10.2053C0.114121 10.1208 0.150621 10.0817 0.153492 10.0591C0.137908 9.99062 0.0915649 9.96458 0.155542 9.89199C0.154107 9.88748 0.151031 9.87825 0.149596 9.87374C0.12663 9.86677 0.100997 9.86226 0.0835677 9.84421C0.0222558 9.73246 0.100792 9.71462 0.0815171 9.66541C0.0757756 9.62747 0.0540396 9.57949 0.0868486 9.54832C0.0946407 9.5354 0.116172 9.52412 0.104688 9.50751C0.084798 9.49644 0.0634721 9.48865 0.0423513 9.48065C-9.53523e-05 9.33465 0.0749553 9.31291 0.0938205 9.28749C0.10879 9.24381 0.109405 9.19644 0.106944 9.15092C0.0897193 9.12078 0.048093 9.10827 0.0421463 9.07054C0.048298 8.91592 0.0901295 8.95345 0.135652 8.90547C0.14693 8.86343 0.148776 8.81955 0.150006 8.77628C0.0197951 8.65325 0.170922 8.58845 0.179739 8.54539C0.215829 8.43732 0.2025 8.50068 0.251714 8.42461C0.162514 8.31388 0.194503 8.32208 0.38377 8.10021C0.394433 8.07499 0.360804 8.05961 0.356703 8.03664C0.341324 7.99173 0.382745 7.95708 0.406121 7.92386C0.444262 7.86193 0.497372 7.92632 0.555403 7.78442C0.570782 7.75305 0.540843 7.72496 0.538793 7.69379C0.622046 7.5523 0.693611 7.58818 0.717192 7.58408C0.784656 7.50452 0.803931 7.52236 0.767431 7.42373C0.845557 7.29557 0.933937 7.30664 0.961414 7.30562C0.976793 7.30623 0.968386 7.30192 1.05266 7.22175C1.04979 7.20124 1.04364 7.18033 1.04877 7.16003C1.06025 7.13603 1.15273 7.07267 1.1837 7.06631C1.20789 7.06673 1.23147 7.0739 1.25547 7.0778C1.26982 7.05401 1.28889 7.03371 1.31268 7.01915C1.34774 6.99844 1.33523 6.94554 1.36927 6.9236C1.55259 6.82517 1.49661 6.8953 1.58233 6.89427C1.69183 6.87049 1.66045 6.85306 1.66906 6.77965C1.70577 6.74089 1.75867 6.7169 1.81055 6.70747C1.85505 6.75196 1.92333 6.74417 1.97911 6.76386C1.9867 6.73556 2.01089 6.71833 2.03201 6.70029C2.02258 6.69229 2.01335 6.68429 2.00413 6.6763C2.0314 6.6441 2.07262 6.59428 2.1735 6.60248C2.19237 6.61273 2.20713 6.62913 2.22579 6.64C2.2465 6.63734 2.42183 6.53583 2.51164 6.5346C2.54773 6.53399 2.56003 6.5832 2.59633 6.58095C2.62504 6.58361 2.64349 6.55593 2.66728 6.54486C2.69353 6.54035 2.72059 6.54281 2.74684 6.5385C2.77903 6.52497 2.8059 6.49216 2.84383 6.49913C3.0087 6.52763 2.90576 6.61499 3.0979 6.58341C3.13665 6.55572 3.12168 6.49339 3.27732 6.54527C3.34561 6.56926 3.24718 6.6238 3.46966 6.64882C3.50391 6.64431 3.51826 6.59694 3.55599 6.59961C3.76905 6.61376 3.59106 6.73761 3.74854 6.67773C3.79119 6.68081 3.82913 6.70213 3.86399 6.72551C3.90746 6.7251 3.9255 6.69721 4.00158 6.74971C4.02332 6.77185 4.02475 6.80425 4.02947 6.83317C4.051 6.83214 4.13671 6.77616 4.20664 6.89735C4.24785 6.85859 4.30978 6.89058 4.34423 6.92339C4.36843 6.94103 4.35776 6.97363 4.36515 6.99885C4.4726 7.14895 4.55257 7.08272 4.57758 7.08354C4.61572 7.09912 4.64648 7.12865 4.67109 7.16105C4.66514 7.16126 4.65325 7.16187 4.6471 7.16228C4.66207 7.1875 4.66576 7.21642 4.67478 7.24369C4.69754 7.26891 4.7281 7.28573 4.75352 7.30808C4.79987 7.28737 5.7663 6.22148 5.78824 6.17391C5.76609 6.16079 5.35659 5.80563 5.3527 5.80071C5.10663 5.62374 4.83001 5.37337 4.37191 5.32436C4.02885 5.17323 3.06201 5.18677 2.91663 5.10495C2.63591 4.88595 2.55245 4.73708 3.31608 4.65752C3.40159 4.63824 3.32264 4.61856 3.48771 4.62532C3.95073 4.45287 4.99508 4.74097 5.36685 4.96285C6.29104 5.39387 6.20696 5.55423 6.33369 5.45252C6.35173 5.43837 6.36506 5.41151 6.38987 5.41028C6.42125 5.4232 6.45118 5.4394 6.48317 5.45088C6.52316 5.39839 6.58017 5.35963 6.60969 5.29955C6.59636 5.27084 6.57791 5.24377 6.57114 5.2126C6.57319 5.19046 6.63963 5.12464 6.6749 5.12135C6.7073 5.11274 6.73355 5.13899 6.76349 5.14637C6.77353 5.14207 7.98337 3.91624 8.14844 3.9066C8.17961 3.85472 8.24953 3.85964 8.28829 3.81617C8.39717 3.68042 8.47345 3.72738 8.4591 3.77495C8.43593 3.85985 8.3701 3.92465 8.34181 4.00769C8.35206 4.00646 8.74064 3.94495 8.79149 3.92711C8.81446 3.91972 8.82779 3.8984 8.84358 3.88158C8.86101 3.85595 8.89689 3.85472 8.91514 3.8295C8.92888 3.81104 8.94775 3.79772 8.96723 3.78582C8.99101 3.77208 8.99245 3.74173 9.00824 3.72164C9.02054 3.70831 9.03654 3.69908 9.04904 3.68575C9.0675 3.6429 9.05848 3.58589 9.10072 3.55534C9.13865 3.52068 9.1893 3.55636 9.23339 3.54509C9.30393 3.52314 9.37016 3.485 9.44501 3.47885C9.53872 3.46573 9.61541 3.40114 9.70892 3.3876C9.75608 3.36341 9.78807 3.31788 9.83544 3.29348C9.8865 3.26846 9.94822 3.29451 9.99805 3.2658C10.0483 3.23935 10.1666 3.25391 10.2086 3.28159C10.2685 3.3185 10.3391 3.32916 10.4024 3.35787C10.4121 3.3267 10.4172 3.29225 10.4418 3.26826C10.4676 3.23237 10.5222 3.22397 10.5589 3.24652C10.5995 3.28877 10.5747 3.35274 10.5958 3.40216C10.6341 3.42205 10.6807 3.41836 10.7182 3.44153C10.767 3.45507 10.8189 3.47906 10.8695 3.45753C10.9341 3.43087 11.0012 3.47578 11.067 3.45425C11.0701 3.44133 11.0732 3.4282 11.0764 3.41549C11.1363 3.39929 11.1915 3.43251 11.2468 3.44973C11.2899 3.45035 11.2989 3.42062 11.4533 3.4604C11.4484 3.44666 11.4341 3.43271 11.4437 3.41775C11.4669 3.37304 11.4921 3.32855 11.5255 3.29041C11.7246 3.02424 11.6209 2.92315 11.9133 2.76772C11.9715 2.74393 12.0474 2.76095 12.0909 2.70599C11.6608 2.65371 11.903 2.72958 11.7144 2.59855C11.6002 2.63648 11.3953 2.77489 11.2751 2.79827C11.1535 2.69226 11.2317 2.80606 11.0709 2.63915C11.0227 2.59096 10.8999 2.39759 10.8771 2.33546C10.8441 2.23272 10.8015 2.33771 10.8431 2.09124C10.8462 2.06991 10.8601 2.05084 10.8775 2.03854C10.9577 2.01475 11.1892 1.98727 11.2245 1.94462C11.1738 1.73936 11.2021 1.7412 11.2038 1.61981C11.195 1.61571 11.1863 1.6114 11.1779 1.6073C11.1855 1.60566 11.2005 1.60218 11.2079 1.60054C11.2015 1.58987 11.1952 1.57941 11.1888 1.56896C11.198 1.5706 11.2077 1.57203 11.2173 1.57367C11.2167 1.56691 11.2159 1.55358 11.2153 1.54681C11.2056 1.54189 11.196 1.53738 11.1866 1.53266C11.1904 1.48345 11.156 1.44408 11.1371 1.40143C11.125 1.36677 11.0826 1.36205 11.0656 1.33171C11.0604 1.30464 11.0641 1.27716 11.0639 1.24989C10.6702 1.10122 10.4391 1.18181 10.379 1.09958C10.368 1.03048 10.3466 0.959324 10.3706 0.89022C10.3936 0.868074 10.419 0.848184 10.4461 0.830754C10.6659 0.823577 11.0075 0.588582 11.1925 0.534037C11.1984 0.518043 11.2038 0.501843 11.2118 0.486464C11.2292 0.471085 11.3793 0.38291 11.5198 0.329391C11.5175 0.335747 11.513 0.348256 11.5105 0.354613C11.7199 0.30991 11.6736 0.298017 11.7053 0.329596C11.7439 0.303349 11.789 0.29002 11.8331 0.276486M9.31316 3.73046C9.30557 3.75855 9.30331 3.78787 9.3148 3.81515C9.35888 3.81063 9.39785 3.77782 9.39846 3.73148C9.36996 3.73025 9.34146 3.73025 9.31316 3.73046ZM10.5831 3.87789C10.3887 3.88917 10.5236 3.84836 10.3764 3.92116C10.2267 3.99498 10.1687 3.96279 10.0507 4.02656C9.93878 4.09689 9.96934 4.12683 9.84753 4.16907C9.72491 4.22177 9.74583 4.10674 9.63038 4.10838C9.58937 4.07885 9.5908 4.06552 9.45731 4.08172C9.41876 4.10838 9.39272 4.15369 9.34474 4.16477C9.30537 4.18302 9.26271 4.14836 9.22396 4.16764C9.13025 4.20967 9.00803 4.33968 8.99552 4.36736C9.07652 4.39299 9.08247 4.32943 9.11282 4.312C9.14481 4.304 9.17782 4.31118 9.21001 4.30585C9.2256 4.29662 9.23872 4.2837 9.25513 4.27529C9.27625 4.27919 9.34043 4.32143 9.43004 4.28534C9.48376 4.26237 9.54282 4.2839 9.5988 4.27488C9.5988 4.27488 9.80222 4.223 9.86763 4.21706C9.89777 4.21624 9.91746 4.18896 9.94576 4.18343C10.0196 4.17789 10.0916 4.16067 10.1639 4.14672C10.1914 4.14508 10.2191 4.1498 10.2468 4.14611C10.3565 4.08931 10.2289 4.11309 10.4664 4.10961C10.4678 4.09771 10.4693 4.08602 10.4709 4.07434C10.4908 4.07229 10.5117 4.07331 10.5312 4.06695C10.5429 4.05691 10.5535 4.04542 10.5642 4.03435C10.6282 4.07475 10.6405 4.03763 10.6856 4.00995C10.7291 3.96873 10.7928 3.96115 10.8353 3.91829C10.8293 3.87379 10.6944 3.84959 10.6429 3.84836C10.6212 3.85431 10.6067 3.87687 10.5831 3.87789ZM8.69799 4.00667C8.57967 4.01713 8.39512 4.07372 8.38507 4.07618C8.28234 4.10202 8.29034 4.11637 8.25322 4.23879C8.22636 4.32451 8.20155 4.41329 8.20647 4.50393C8.31043 4.43216 8.29239 4.33763 8.49683 4.20598C8.69532 4.12314 8.70865 4.18404 8.81036 4.21542C8.86675 4.15021 8.92376 4.08418 8.99388 4.03292C9.00557 4.02574 9.01172 4.01364 9.01501 4.00072C8.96948 3.98555 8.92027 3.9876 8.87475 4.00093C8.84419 4.01036 8.81508 3.9917 8.78493 3.99047C8.75602 3.9958 8.72731 4.0038 8.69799 4.00667ZM8.17284 4.0161C8.17284 4.0161 8.12609 4.03681 7.83696 4.2755C7.83798 4.28247 7.83983 4.29641 7.84085 4.30318C7.8833 4.27919 7.93169 4.27591 7.97927 4.28288C7.97824 4.27427 7.97762 4.26565 7.9768 4.25704C8.29136 3.98309 8.20831 4.09587 8.2403 3.99498C8.21652 3.99744 8.19129 3.99908 8.17284 4.0161ZM8.05637 4.27324C8.04427 4.28719 8.02458 4.28431 8.00838 4.2876C8.09676 4.33004 8.06375 4.38725 8.02356 4.40468C7.93436 4.45677 8.03914 4.51418 8.09758 4.59251C8.13347 4.53079 8.10784 4.59477 8.12547 4.41699C8.13593 4.33927 8.16074 4.26422 8.17243 4.18671C8.12486 4.20188 8.09225 4.24105 8.05637 4.27324ZM11.601 4.50495C11.3955 4.69935 11.374 4.76353 11.2499 4.79531C11.1861 4.81028 10.7641 4.86503 10.7641 4.86503C10.5088 4.97638 10.0877 5.00755 9.98164 5.08773C9.94248 5.12792 9.90495 5.17405 9.8541 5.19948C9.79032 5.20563 9.72737 5.11028 9.68513 5.11787C9.61295 5.12238 9.62136 5.18451 9.46777 5.17775C9.44009 5.21404 9.48233 5.2569 9.46182 5.29483C9.42778 5.36189 9.40195 5.43448 9.35273 5.4923C9.34105 5.50871 9.3269 5.52573 9.32731 5.54685C9.38185 5.60508 9.50058 5.62743 9.49668 5.90159C9.48294 5.91185 9.46736 5.92046 9.4569 5.9342C9.44357 5.98731 9.59819 6.05395 9.65294 6.16899C9.8057 6.12347 9.83728 6.27254 9.88588 6.26926C9.93243 6.24793 9.9759 6.21738 10.005 6.17432C11.2501 5.59996 11.5526 6.13413 12.0808 5.91943C12.0779 5.71274 12.3008 5.57904 12.2256 5.54623C11.9582 5.38547 11.9293 4.87242 11.9125 4.52608C11.8856 4.4906 11.9008 4.43995 11.87 4.40714C11.8429 4.39381 11.8132 4.38459 11.7833 4.38213C11.7105 4.40181 11.6565 4.45759 11.601 4.50495ZM8.885 4.89067C8.85383 4.90974 8.88541 4.94542 8.88151 4.9733C8.87352 5.03728 8.86695 5.10146 8.85773 5.16524C8.84214 5.23126 8.94795 5.25013 8.82738 5.34138C8.77858 5.36927 8.84747 5.4314 8.57516 5.44247C8.52431 5.45375 8.47263 5.43878 8.42198 5.45068C8.33852 5.43243 8.285 5.35943 8.22349 5.30611C8.23887 5.27166 8.23087 5.23065 8.20032 5.20727C8.18063 5.21199 8.16587 5.22696 8.14864 5.23701C8.15315 5.27945 8.1349 5.31718 8.12157 5.35614C8.11583 5.4923 8.28931 5.74247 8.34016 5.72668C8.57516 5.52798 8.59833 5.53844 8.86572 5.57453C8.92458 5.45068 9.15301 5.42771 9.21678 5.51998C9.27276 5.51691 9.28794 5.45785 9.30434 5.41438C9.32854 5.34774 9.37365 5.2895 9.38923 5.21958C9.27502 5.19189 9.3191 5.19374 9.26948 5.13017C9.23975 5.11705 9.20489 5.11582 9.17803 5.09613C9.16511 5.05717 9.17392 5.01493 9.1688 4.97474C9.15834 4.95321 9.14706 4.93188 9.13291 4.91261C9.06258 4.8757 8.90674 4.87734 8.885 4.89067ZM5.87108 6.26352C5.86083 6.2709 4.88948 7.32428 4.90178 7.34335C4.92454 7.37575 4.9596 7.4022 4.96001 7.44587C5.00349 7.43808 5.28257 7.16413 5.29897 7.12763C5.31333 7.1223 5.32789 7.11737 5.34224 7.11245C5.34901 7.09769 5.35434 7.08169 5.36418 7.06857C5.37812 7.05914 5.39391 7.0534 5.40909 7.04663C5.41565 7.01628 5.4378 6.99475 5.46814 6.98798C5.47348 6.97486 5.47758 6.96133 5.48516 6.94964C5.73841 6.73289 5.66582 6.76427 5.71995 6.74417C5.72775 6.71239 5.75194 6.69168 5.78209 6.68142C5.7907 6.64964 5.81756 6.63262 5.84729 6.62339C5.87211 6.56967 5.93055 6.51799 5.97115 6.4981C5.97853 6.46222 6.00765 6.44274 6.04107 6.43372C6.04681 6.41177 6.05235 6.38983 6.05604 6.36748C5.97135 6.33426 5.90184 6.23317 5.87108 6.26352ZM7.05282 6.33447C7.03826 6.34841 7.04503 6.36912 7.04646 6.38655C7.07804 6.38635 7.12049 6.39004 7.14079 6.36092C7.13382 6.33652 7.12069 6.31437 7.1086 6.29202C7.08953 6.30556 7.06902 6.31765 7.05282 6.33447ZM2.72654 7.33186C2.69804 7.33822 2.69701 7.37123 2.69681 7.39482C2.69886 7.42578 2.67487 7.45121 2.6763 7.48217C2.6683 7.58982 2.69414 8.02393 2.68204 8.1242C2.67446 8.16357 2.74705 8.32823 2.7817 8.34402C2.78416 8.33377 3.01546 7.38231 2.96215 7.31956C2.88382 7.32735 2.80262 7.30746 2.72654 7.33207M2.36318 7.3819C2.3396 7.44116 2.60023 7.97923 2.62791 8.03644C2.63488 8.03664 2.64882 8.03705 2.65559 8.03726C2.67897 7.8847 2.63283 7.34786 2.63303 7.3376C2.54322 7.35339 2.44869 7.34663 2.36318 7.3819ZM3.06058 7.34007C2.94021 7.61074 2.9806 7.60746 2.93775 7.72332C2.93918 7.78647 2.80344 8.34812 2.80016 8.36145C2.8102 8.36145 3.05976 8.34648 3.16331 8.36473C3.22708 8.37109 3.28614 8.40246 3.35114 8.40185C3.35217 8.36863 3.35975 7.4998 3.36037 7.3983C3.29988 7.3456 3.08682 7.33473 3.06058 7.34007ZM2.1247 7.44875C2.09169 7.4631 2.05211 7.46823 2.02586 7.49529C2.02361 7.54984 2.27624 7.86091 2.3638 7.97554C2.64944 8.34689 2.60556 8.33274 2.67446 8.32946C2.67815 8.35017 2.68307 8.37088 2.68799 8.3918C2.7048 8.38954 2.72162 8.38749 2.73843 8.38565C2.74623 8.34956 2.72367 8.31818 2.70603 8.28907C2.69189 8.29153 2.67794 8.29378 2.66379 8.29624C2.66051 8.25298 2.66564 8.2093 2.66031 8.16624C2.45033 7.6618 2.291 7.41389 2.291 7.41389C2.23461 7.41942 2.17719 7.42537 2.1247 7.44875ZM3.42763 7.42824C3.37452 8.10964 3.37595 8.39426 3.37677 8.40431C3.40651 8.39221 3.43173 8.37191 3.45757 8.35304C3.43378 8.37683 3.41122 8.4039 3.40979 8.43917C3.43419 8.45045 3.46003 8.45906 3.48709 8.45967C3.50309 8.42133 3.51334 8.38073 3.51806 8.33931C3.50288 8.33418 3.48771 8.32926 3.47274 8.32393C3.57957 8.09303 3.45921 8.554 3.69236 7.68784C3.69953 7.64929 3.69441 7.60971 3.70179 7.57157C3.70999 7.50596 3.72004 7.49714 3.54902 7.43357C3.50904 7.42701 3.46659 7.40876 3.42763 7.42824ZM1.88171 7.56071C1.83167 7.58449 1.7072 7.64868 1.69347 7.70404C1.72956 7.86009 1.93215 8.24641 1.95922 8.29255C2.28341 9.00328 2.15074 8.65714 2.56311 8.45332C2.59469 8.43568 2.63262 8.42584 2.6558 8.39611C2.6558 8.39611 2.30556 7.92612 2.28239 7.89392C2.26803 7.88285 2.09045 7.67513 2.0519 7.61628C2.02033 7.59741 1.99654 7.56973 1.97091 7.5441C1.94035 7.53918 1.9096 7.54861 1.88171 7.56071ZM3.77868 7.56071C3.69851 7.69727 3.60316 8.07642 3.61669 8.13671C3.66754 8.10964 3.99379 7.74977 4.02147 7.67472C4.00937 7.66262 3.80862 7.50924 3.77868 7.56071ZM1.52122 7.81293C1.48677 7.84348 1.44227 7.8728 1.43571 7.92222C1.47508 8.01819 1.96517 8.60506 1.97542 8.61285C2.01745 8.62536 2.05847 8.64156 2.10132 8.6512C2.10009 8.61203 1.70741 7.84635 1.70167 7.83179C1.67317 7.7996 1.65635 7.75838 1.62313 7.72988C1.58725 7.7553 1.55362 7.7834 1.52122 7.81293ZM4.0674 7.7348C3.90808 7.83569 3.74239 8.06268 3.58286 8.22796C3.55292 8.31121 3.52564 8.39631 3.5117 8.48408C3.55907 8.54252 3.85579 8.24518 3.98784 8.16419C4.1119 8.08893 4.08381 8.07068 4.21258 7.90848C4.23022 7.88716 4.23904 7.85804 4.2335 7.83077C4.21648 7.81005 4.12154 7.71737 4.0674 7.7348ZM7.68521 7.74239C7.66737 7.78504 7.66594 7.83159 7.65794 7.8767C7.6483 7.88346 7.63682 7.88839 7.62985 7.89823C7.62144 7.94191 7.62821 8.37642 7.63272 8.4039C7.66348 8.39816 7.69465 8.39221 7.72541 8.38483C7.70387 8.36883 7.67312 8.37088 7.65446 8.35161C7.65261 8.33992 7.6522 8.32823 7.65343 8.31675C7.67476 8.28168 7.69424 8.30034 7.85869 8.26097C7.86402 8.24744 7.87038 8.23432 7.87428 8.22037C7.86956 8.20643 7.86177 8.19372 7.85685 8.18018C7.86607 8.08791 7.95363 8.14184 7.93559 7.97184C7.94153 7.95482 7.9524 7.94027 7.95855 7.92345C7.94933 7.89761 7.94051 7.87157 7.93231 7.84532C7.88453 7.80185 7.82916 7.81108 7.68521 7.74239ZM4.25544 8.00937C4.16665 8.08093 4.13036 8.26364 4.14984 8.37499C4.21627 8.33725 4.43363 8.11374 4.44717 8.09242C4.46419 8.0594 4.43199 8.02885 4.40964 8.00834C4.38155 7.99973 4.35387 7.98927 4.33049 7.97082C4.30547 7.98374 4.27943 7.9944 4.25544 8.00937ZM1.35697 7.98271C1.30509 8.03336 1.26736 8.09631 1.22184 8.1525C1.22553 8.16706 1.22901 8.18182 1.23229 8.19679C1.24234 8.20233 1.75375 8.51811 1.86305 8.52611C1.85854 8.51606 1.45765 7.94826 1.35697 7.98271ZM7.32575 8.05387C7.28864 8.18838 7.28905 8.44347 7.31734 8.56487C7.35487 8.5298 7.35671 8.57902 7.34667 8.34402C7.35261 8.24498 7.35138 8.14532 7.34605 8.04628C7.34113 8.04813 7.33088 8.05202 7.32575 8.05387ZM3.90192 8.25913C3.87363 8.2864 3.5845 8.51012 3.57424 8.5175C3.58778 8.54149 3.60787 8.56077 3.63125 8.57553C3.68743 8.61121 3.72516 8.6674 3.77479 8.71066C3.81559 8.7566 3.86337 8.64874 3.98559 8.55277C4.06187 8.48695 4.03234 8.48469 4.02557 8.35427C4.02209 8.3026 4.02578 8.2499 4.01306 8.19905C3.97328 8.21258 3.93125 8.22755 3.90192 8.25913ZM1.14884 8.2743C1.13551 8.29317 1.04733 8.43671 1.04221 8.49679C1.1029 8.5093 1.23229 8.5661 1.23701 8.57204C1.22676 8.57861 1.21527 8.58517 1.20297 8.58004C1.1433 8.56302 1.08096 8.56876 1.01986 8.56446C0.972692 8.63295 0.880007 8.85646 0.958338 8.88332C0.968591 8.88783 1.10536 8.99959 1.86838 9.32378C1.8977 9.33855 2.0316 9.29651 2.04186 9.29097C2.04186 9.29097 2.04145 9.13103 2.14479 8.86138C2.11342 8.81422 2.17719 8.80109 1.79681 8.72625C1.78943 8.71722 1.78349 8.70718 1.77877 8.69651C1.95573 8.71784 1.94097 8.76008 2.07918 8.75516C2.03981 8.70861 1.98711 8.67129 1.96209 8.61367C1.80112 8.56569 1.21466 8.17239 1.14884 8.2743ZM3.01526 8.39488C2.96605 8.45393 3.02305 8.46624 3.03925 8.47362C3.08641 8.48141 3.08641 8.4082 3.05504 8.392C3.04294 8.38852 3.02387 8.38257 3.01526 8.39488ZM4.56774 8.53267C4.5296 8.5622 4.37827 8.73568 4.31265 8.78551C4.28927 8.8013 4.29891 8.82939 4.30445 8.85195C4.351 8.85318 4.76275 8.56015 4.75865 8.49679C4.76131 8.45639 4.73158 8.42502 4.71272 8.39241C4.66125 8.43589 4.62065 8.49084 4.56774 8.53267ZM2.80918 8.40923C2.80631 8.43855 2.81861 8.46726 2.84506 8.48161C2.85019 8.45127 2.84404 8.41661 2.80918 8.40923ZM3.24246 8.49474C3.26399 8.53124 3.34171 8.51832 3.29332 8.43097C3.21765 8.43794 3.22975 8.48223 3.24246 8.49474ZM2.88915 8.47423C2.88751 8.4892 2.88976 8.50438 2.89079 8.51955C2.91601 8.52878 2.94287 8.53513 2.96912 8.52509C2.96933 8.50622 2.96953 8.48756 2.96974 8.46911C2.9439 8.46193 2.91007 8.45024 2.88915 8.47423ZM3.12332 8.46767C3.10036 8.48325 3.11656 8.51237 3.11799 8.53411C3.14157 8.53718 3.16536 8.53657 3.18874 8.53226C3.1873 8.51401 3.19058 8.49453 3.18341 8.47751C3.16762 8.46234 3.14239 8.45414 3.12332 8.46767ZM2.56496 8.50089C2.54076 8.51647 2.55716 8.54764 2.5666 8.56733C2.58608 8.57471 2.60679 8.5704 2.62586 8.56405C2.62524 8.54662 2.62606 8.52919 2.62258 8.51237C2.60863 8.49843 2.58136 8.48346 2.56496 8.50089ZM2.68614 8.5052C2.68676 8.52734 2.68758 8.5499 2.68799 8.57225C2.69927 8.57225 2.71055 8.57225 2.72182 8.57245C2.73023 8.54826 2.737 8.52324 2.73454 8.4974C2.71834 8.49986 2.70214 8.50233 2.68614 8.5052ZM3.31915 8.54498C3.31936 8.55995 3.31956 8.57512 3.31977 8.59029C3.32633 8.59091 3.33966 8.59234 3.34622 8.59276C3.34807 8.57902 3.3495 8.56528 3.35094 8.55174C3.34027 8.54928 3.32982 8.54703 3.31915 8.54498ZM3.37636 8.54518C3.37534 8.55769 3.37452 8.5702 3.3737 8.58291C3.38108 8.5823 3.39564 8.58086 3.40302 8.58004C3.40138 8.5702 3.39995 8.56036 3.39851 8.55051C3.39297 8.54928 3.3819 8.54662 3.37636 8.54518ZM3.49366 8.58045C3.49222 8.59029 3.49079 8.60014 3.48935 8.61018C3.49571 8.60998 3.50863 8.60916 3.51498 8.60875C3.51539 8.59809 3.5158 8.58742 3.51601 8.57697C3.51047 8.57779 3.49919 8.57943 3.49366 8.58045ZM4.7769 8.58783C4.76685 8.59542 4.34156 8.84518 4.34033 8.88906C4.35038 8.89255 4.94976 8.88845 4.90855 8.81032C4.83678 8.6028 4.8136 8.55995 4.7769 8.58783ZM2.49524 8.60444C2.49442 8.62659 2.48908 8.65079 2.49995 8.6717C2.5264 8.6918 2.58485 8.6676 2.56414 8.62905C2.55716 8.59686 2.52066 8.5946 2.49524 8.60444ZM2.95887 8.5907C2.96359 8.6432 2.93119 8.69057 2.93795 8.74224C2.98963 8.75167 3.0048 8.68852 3.01423 8.65058C3.02039 8.61572 2.98368 8.6026 2.95887 8.5907ZM3.08293 8.62679C3.06611 8.66473 3.03679 8.69815 3.03146 8.7406C3.04848 8.74142 3.0655 8.74224 3.08272 8.74306C3.19714 8.58558 3.09257 8.60977 3.08293 8.62679ZM7.6319 8.64771C7.62472 8.74081 7.62759 9.1179 7.63149 9.14046C7.81153 9.01784 7.84557 9.0853 7.94523 9.06213C7.93436 9.0447 7.92062 9.02953 7.90729 9.01435C7.91775 9.00082 7.92882 8.98769 7.93989 8.97457C7.92759 8.96309 7.91283 8.95304 7.90483 8.93787C7.91098 8.91879 7.92698 8.9028 7.92821 8.8827C7.92082 8.86815 7.91098 8.85523 7.90216 8.8419C7.90791 8.83288 7.91406 8.82426 7.92 8.81565C7.87633 8.80294 7.87366 8.74778 7.83121 8.73404C7.79574 8.72871 7.75924 8.73342 7.72438 8.72563C7.69977 8.71066 7.7008 8.66822 7.7293 8.65858C7.75309 8.64443 7.7941 8.64935 7.80005 8.61593C7.74222 8.61224 7.68521 8.62638 7.6319 8.64771ZM2.36626 8.64115C2.37015 8.65899 2.36482 8.68257 2.38143 8.69549C2.39476 8.70943 2.41957 8.70779 2.43392 8.6959C2.43782 8.67088 2.43454 8.64525 2.42265 8.62269C2.40276 8.62495 2.38369 8.63131 2.36626 8.64115ZM3.21109 8.65058C3.18648 8.68031 3.15552 8.71046 3.15203 8.75106C3.16249 8.75577 3.17295 8.7607 3.18341 8.76582C3.21232 8.73609 3.26256 8.71025 3.25702 8.66247C3.25784 8.63971 3.22216 8.63233 3.21109 8.65058ZM2.74561 8.64976C2.72716 8.69508 2.729 8.74409 2.73454 8.79186C2.74705 8.79289 2.75935 8.79392 2.77186 8.79494C2.78662 8.75947 2.78847 8.7203 2.7856 8.68257C2.78396 8.66206 2.75976 8.65878 2.74561 8.64976ZM3.50924 8.66165C3.51047 8.68134 3.5117 8.70102 3.51334 8.72092C3.53918 8.72502 3.56563 8.72686 3.59167 8.72399C3.58921 8.7 3.59639 8.66719 3.5685 8.65591C3.54964 8.63951 3.52831 8.65386 3.50924 8.66165ZM2.02976 8.66022C2.03222 8.73055 2.04493 8.69979 2.1126 8.78305C2.12778 8.78264 2.14295 8.78202 2.15833 8.78161C2.14069 8.70759 2.12778 8.70246 2.02976 8.66022ZM3.65155 8.68688C3.64273 8.7121 3.64171 8.73876 3.64417 8.76521C3.66365 8.76541 3.68538 8.77177 3.70302 8.76008C3.73767 8.6799 3.67247 8.69139 3.65155 8.68688ZM2.61766 8.7201C2.62278 8.75126 2.62627 8.78674 2.65333 8.80765C2.65949 8.77526 2.66133 8.74183 2.6558 8.70902C2.64288 8.71251 2.63016 8.7162 2.61766 8.7201ZM3.30644 8.72727C3.28163 8.74552 3.24246 8.76234 3.25251 8.80027C3.29721 8.79904 3.3493 8.76377 3.34396 8.71456C3.33105 8.71722 3.31731 8.71886 3.30644 8.72727ZM2.35375 8.75065C2.34452 8.76008 2.33775 8.77177 2.33037 8.78305C2.35354 8.79699 2.37835 8.80765 2.4046 8.81401C2.40481 8.79269 2.40358 8.77156 2.40153 8.75065C2.38574 8.75024 2.36851 8.74327 2.35375 8.75065ZM3.43152 8.82467C3.51621 8.7933 3.46003 8.76849 3.44875 8.75536C3.43501 8.77587 3.43173 8.80048 3.43152 8.82467ZM2.53379 8.77567C2.52866 8.81791 2.5426 8.85912 2.54507 8.90116C2.56167 8.89214 2.57828 8.88353 2.59448 8.8743C2.60248 8.84415 2.58444 8.81606 2.57336 8.7894C2.5627 8.77977 2.54691 8.77977 2.53379 8.77567ZM2.24753 8.84518C2.24712 8.85625 2.24671 8.86753 2.2465 8.87901C2.26024 8.87901 2.27398 8.87942 2.28792 8.87963C2.28731 8.86938 2.2869 8.85933 2.28628 8.84949C2.27337 8.84785 2.26045 8.84661 2.24753 8.84518ZM3.4348 8.87594C3.43378 8.89316 3.43316 8.91039 3.43255 8.92782C3.48135 8.93007 3.52544 8.90834 3.56748 8.88701C3.548 8.81032 3.51109 8.8501 3.4348 8.87594ZM4.36802 8.92331C4.36802 8.92331 4.41744 9.04306 4.4646 9.17819C4.562 9.18742 4.67191 9.20198 4.99241 9.19234C5.00267 9.13862 4.96678 8.99446 4.92762 8.90588C4.66268 8.89152 5.04163 8.88127 4.36802 8.92331ZM2.45279 8.8989C2.45771 8.93971 2.48539 8.97293 2.5141 9.0002C2.52374 8.99897 2.53338 8.99754 2.54281 8.99569C2.53645 8.96616 2.53174 8.93315 2.50939 8.91121C2.49155 8.90301 2.47165 8.90178 2.45279 8.8989ZM0.900923 8.93028C0.781375 9.34265 0.970847 9.17163 1.0662 9.28626C0.996069 9.27908 0.925939 9.27559 0.8554 9.27313C0.838585 9.36766 0.848428 9.46404 0.857656 9.55898C0.961209 9.56124 1.49415 9.44394 1.5489 9.40539C1.53639 9.40437 1.24972 9.34121 1.22901 9.34203C1.19087 9.34388 1.15335 9.31845 1.14617 9.2799C1.31247 9.26124 1.59053 9.43267 1.80686 9.34449C1.80789 9.34162 1.80994 9.33567 1.81096 9.3326C1.70843 9.28195 1.0338 8.94135 0.900923 8.93028ZM4.14307 8.94873C4.14266 8.95529 4.14143 8.96842 4.14081 8.97498C4.14738 8.97457 4.1607 8.97395 4.16727 8.97354C4.17116 8.96186 4.17506 8.95017 4.17895 8.93889C4.16686 8.94176 4.15496 8.94525 4.14307 8.94873ZM4.16993 9.0082C4.16091 9.07054 4.22243 9.04839 4.16152 9.16343C4.22591 9.18209 4.2944 9.1706 4.36063 9.17347C4.35981 9.08756 4.26303 8.97395 4.25277 8.94566C4.22407 8.96514 4.19454 8.984 4.16993 9.0082ZM2.38205 9.00553C2.40194 9.03527 2.42962 9.05905 2.44951 9.08899C2.46427 9.08879 2.47883 9.08838 2.49339 9.08817C2.47555 9.00061 2.38102 8.91797 2.38205 9.00553ZM2.1532 9.01989C2.11527 9.02727 2.13147 9.07382 2.13967 9.09924C2.15771 9.09596 2.17863 9.09945 2.19483 9.0894C2.23174 9.06644 2.19196 8.99979 2.1532 9.01989ZM2.18396 9.14497C2.16058 9.15481 2.17186 9.18598 2.16674 9.20587C2.18355 9.2149 2.20139 9.22166 2.22026 9.22453C2.22825 9.20813 2.24855 9.19193 2.23953 9.17204C2.23174 9.15133 2.20529 9.1341 2.18396 9.14497ZM2.32524 9.19972C2.32442 9.20608 2.32299 9.21859 2.32217 9.22494C2.33222 9.2231 2.34247 9.22125 2.35252 9.21961C2.35375 9.21387 2.35621 9.20259 2.35764 9.19706C2.34678 9.19788 2.33591 9.1987 2.32524 9.19972ZM4.22345 9.20075C4.24334 9.24155 4.26713 9.28298 4.26385 9.33055C4.29932 9.31989 4.33664 9.31989 4.37294 9.32788C4.37335 9.28892 4.37417 9.24996 4.3756 9.211C4.32557 9.20075 4.27431 9.19706 4.22345 9.20075ZM4.47321 9.21121C4.46132 9.48762 4.36289 9.52699 4.31183 9.60594C4.58579 9.61086 4.5132 9.59712 4.55441 9.63096C4.6676 9.59097 4.73281 9.63588 4.99159 9.57846C5.02215 9.55406 5.01599 9.495 4.97826 9.47962C4.94053 9.4665 4.89932 9.47409 4.86159 9.46137C4.83555 9.4503 4.82078 9.40703 4.84949 9.39022C4.88722 9.365 4.93705 9.38427 4.97662 9.36315C5.01394 9.35146 5.01784 9.29774 4.99159 9.27293C4.95776 9.21223 4.5417 9.21592 4.47321 9.21121ZM2.09702 9.27559C2.11937 9.27662 2.14131 9.2719 2.16161 9.26226C2.13987 9.24176 2.11035 9.25037 2.09702 9.27559ZM2.11219 9.30512C2.10419 9.33301 2.14356 9.32645 2.16079 9.32686C2.16304 9.31599 2.1653 9.30533 2.16756 9.29466C2.1489 9.29774 2.13044 9.3004 2.11219 9.30512ZM2.32565 9.32563C2.29387 9.34449 2.31089 9.40375 2.4452 9.4056C2.42962 9.3447 2.4573 9.3693 2.36154 9.32686C2.35047 9.32317 2.33529 9.31435 2.32565 9.32563ZM1.9545 9.34634C1.96619 9.38509 2.01212 9.39104 2.04534 9.40129C2.04698 9.37587 2.04678 9.35044 2.04534 9.32501C2.01438 9.3285 1.98403 9.3369 1.9545 9.34634ZM1.76031 9.40478C2.02771 9.45194 1.92969 9.45502 2.01048 9.4421C2.01069 9.43738 2.01089 9.42795 2.0111 9.42303C1.96311 9.40847 1.92087 9.37423 1.87022 9.36971C1.83372 9.37833 1.78738 9.37505 1.76031 9.40478ZM2.1571 9.40027C2.16961 9.49562 2.29305 9.42549 2.21636 9.36582C2.19647 9.37648 2.17658 9.38796 2.1571 9.40027ZM4.26446 9.43923C4.28722 9.44641 4.29625 9.42549 4.29543 9.40621C4.27554 9.4058 4.27102 9.42446 4.26446 9.43923ZM7.67373 9.43574C7.68583 9.45461 7.69752 9.4786 7.72171 9.48414C7.75206 9.48044 7.75678 9.44312 7.75206 9.41852C7.72438 9.41585 7.69485 9.41483 7.67373 9.43574ZM1.44555 9.46219C1.30365 9.5112 0.896001 9.57149 0.873035 9.6451C0.861347 9.70006 0.915071 9.85365 0.907279 9.91352C1.12054 9.90594 1.55177 9.63239 1.88724 9.49152C1.88683 9.48865 1.88581 9.48291 1.8854 9.48003C1.85669 9.46609 1.82655 9.4544 1.79394 9.45666C1.67337 9.46445 1.77241 9.38202 1.44555 9.46219ZM7.93087 9.4382C7.94625 9.47429 7.95117 9.52781 8.09963 9.4665C8.0455 9.44784 7.98747 9.44558 7.93087 9.4382ZM4.22243 9.47921C4.2134 9.48844 4.22181 9.50854 4.23555 9.50444C4.26262 9.5071 4.26815 9.47552 4.27431 9.45604C4.25524 9.45891 4.22755 9.45399 4.22243 9.47921ZM1.69634 9.60614C0.91097 9.98181 0.964695 9.96704 0.964695 9.96704C0.954647 9.99821 0.950956 10.0312 0.959979 10.0632C0.98315 10.0573 1.00694 10.0487 1.03113 10.055C1.07748 10.0653 1.11603 10.0288 1.16073 10.0249C1.18903 10.0259 1.20543 10.069 1.17734 10.0837C1.16216 10.0903 1.10762 10.1067 1.00202 10.1852C1.01063 10.2258 1.03154 10.2631 1.06148 10.2921C1.11152 10.2929 1.16298 10.2572 1.21158 10.2851C1.17467 10.3171 1.12792 10.3314 1.08404 10.3509C1.10003 10.3985 1.12854 10.4405 1.14494 10.4879C1.21199 10.5851 1.25095 10.599 1.30119 10.5701C1.32416 10.557 1.35184 10.567 1.37645 10.5599C1.46708 10.523 1.86489 10.3253 1.88909 10.2974C1.93236 10.2199 1.99469 10.1534 2.02914 10.0706C1.91226 10.088 1.27248 10.289 1.22348 10.2814C1.21979 10.2225 1.342 10.2455 1.35307 10.2394C1.35922 10.2365 1.81547 10.0983 1.82204 10.0962C2.01684 10.0333 2.07877 10.0724 2.1938 9.82884C2.16469 9.76609 2.12162 9.70908 2.10522 9.6408C2.0923 9.6002 2.08184 9.55857 2.06462 9.51961C2.03058 9.48844 1.98157 9.49357 1.93933 9.49705C1.8569 9.52986 1.77815 9.57169 1.69634 9.60614ZM2.12613 9.53417C2.13372 9.54504 2.13926 9.55816 2.15013 9.56677C2.17207 9.56882 2.19073 9.55755 2.19893 9.53704C2.17473 9.53499 2.15033 9.53355 2.12613 9.53417ZM2.24507 9.57087C2.23276 9.58974 2.20672 9.60758 2.2178 9.63321C2.22108 9.65372 2.24179 9.66643 2.26168 9.66274C2.28608 9.66561 2.2951 9.63731 2.29654 9.61804C2.29018 9.59282 2.26639 9.58092 2.24507 9.57087ZM4.59071 9.64223C4.47137 9.6611 4.34854 9.63342 4.23063 9.66048C4.22284 9.67791 4.21402 9.69514 4.20746 9.71339C4.22222 9.73717 4.25175 9.74825 4.26713 9.77244C4.26938 9.79459 4.25667 9.8153 4.25421 9.83745C4.29133 9.87149 4.33131 9.90307 4.37458 9.9289C4.63992 9.93731 4.92023 9.98775 4.95981 9.93977C4.9959 9.90819 5.01476 9.70888 5.00759 9.65946C4.99898 9.61148 4.60424 9.64141 4.59071 9.64223ZM2.42121 9.70067C2.42798 9.70478 2.4411 9.71318 2.44766 9.71728C2.45279 9.70252 2.45792 9.68755 2.46284 9.67279C2.44438 9.67463 2.43126 9.68612 2.42121 9.70067ZM7.62882 9.69493C7.61755 9.7505 7.65548 9.79685 7.67558 9.84524C7.69772 9.88666 7.7008 9.93546 7.72151 9.9775C7.74755 9.97853 7.80989 9.90819 7.75247 9.7583C7.73689 9.7058 7.6723 9.70724 7.62882 9.69493ZM2.21595 9.72733C2.20078 9.74456 2.21451 9.76711 2.22354 9.78393C2.24589 9.76281 2.26332 9.73717 2.27398 9.70847C2.25388 9.7099 2.22866 9.70744 2.21595 9.72733ZM2.50672 9.78618C2.48908 9.82494 2.57357 9.86985 2.5588 9.75953C2.54055 9.76445 2.51103 9.76219 2.50672 9.78618ZM2.33304 9.78393C2.31745 9.80095 2.32627 9.82617 2.32442 9.84709C2.35498 9.8559 2.40501 9.87395 2.39906 9.80136C2.38615 9.78003 2.35436 9.76609 2.33304 9.78393ZM4.16358 9.85488C4.14081 9.8559 4.14512 9.88523 4.13979 9.90102C4.18675 9.9086 4.23411 9.91332 4.28189 9.9127C4.28169 9.90102 4.28148 9.88953 4.28148 9.87805C4.24826 9.8516 4.20336 9.85529 4.16358 9.85488ZM2.19749 9.88666C2.17186 9.92378 2.14377 9.96007 2.12778 10.0025C2.17842 9.99698 2.22784 9.9816 2.27439 9.96151C2.25471 9.92255 2.21944 9.84729 2.19749 9.88666ZM3.30541 9.87764C3.31054 9.90204 3.31034 9.93259 3.33433 9.94736C3.33392 9.92583 3.33187 9.9045 3.32941 9.88318C3.32346 9.88174 3.31136 9.87907 3.30541 9.87764ZM3.38518 9.87641C3.38723 9.89814 3.38723 9.92029 3.3901 9.94223C3.40036 9.9613 3.4225 9.95371 3.43993 9.95433C3.43973 9.9287 3.43583 9.90348 3.42927 9.87887C3.4145 9.87784 3.39995 9.87702 3.38518 9.87641ZM4.08176 9.96151C4.0633 9.95597 4.04505 9.95043 4.0266 9.9451C4.02475 9.94941 4.02106 9.95782 4.01901 9.96192C4.035 9.98529 4.04095 10.014 4.05633 10.0372C4.58107 10.5207 4.67109 10.6089 4.7363 10.5791C4.91552 10.2964 4.80909 10.3218 4.75188 10.2398C4.58927 10.0886 4.35161 9.91455 4.13077 9.93198C4.11334 9.93977 4.09775 9.95125 4.08176 9.96151ZM2.48355 9.94551C2.48006 9.96069 2.47699 9.97607 2.47453 9.99165C2.49749 9.98058 2.51656 9.96356 2.53153 9.94285C2.51554 9.94346 2.49954 9.94428 2.48355 9.94551ZM2.39127 9.96602C2.37856 9.98775 2.42183 9.98939 2.42244 9.96909C2.42121 9.9533 2.39824 9.95659 2.39127 9.96602ZM4.4527 9.95782C4.46234 9.99391 4.43774 9.99739 4.60363 10.102C4.67027 10.1428 4.82857 10.265 4.87512 10.2685C4.89522 10.2404 4.94238 10.1141 4.94833 10.0189C4.76911 9.97443 4.46296 9.95782 4.4527 9.95782ZM3.65175 10.0364C3.65134 10.0167 3.65032 9.99698 3.64847 9.9775C3.61525 9.9855 3.62182 10.0288 3.65175 10.0364ZM2.22374 10.0095C2.17965 10.0232 2.13311 10.0302 2.09066 10.0491C2.08205 10.0591 1.96865 10.2197 1.95389 10.2656C2.3111 10.1249 2.26865 10.0856 2.31294 9.99616C2.28259 9.99514 2.25265 10.0003 2.22374 10.0095ZM3.06017 10.0128C3.05668 10.0236 3.05319 10.0345 3.04991 10.0458C3.05381 10.0493 3.06181 10.0562 3.06591 10.0597C3.07329 10.0435 3.08067 10.0273 3.08744 10.0111C3.08067 10.0113 3.06714 10.0124 3.06017 10.0128ZM3.50042 10.0158C3.5037 10.0366 3.51211 10.0558 3.52708 10.0708C3.53631 10.0509 3.53098 10.0298 3.52688 10.0095C3.52031 10.0111 3.50719 10.0142 3.50042 10.0158ZM10.8254 10.1116C10.8738 10.1163 10.9032 10.1577 10.9466 10.1737C10.9442 10.137 10.9448 10.0999 10.9438 10.0632C10.9261 10.0267 10.8825 10.0076 10.8437 10.0058C10.8226 10.0364 10.8281 10.0763 10.8254 10.1116ZM2.33058 10.0431C2.31704 10.0517 2.32914 10.0792 2.34411 10.0665C2.35744 10.0575 2.34555 10.0304 2.33058 10.0431ZM7.74837 10.0382C7.74817 10.055 7.74858 10.072 7.74981 10.0893C7.774 10.0901 7.79123 10.0749 7.79061 10.0501C7.77646 10.0458 7.76232 10.0417 7.74837 10.0382ZM3.98231 10.0827C3.95032 10.0973 3.91525 10.0884 3.88203 10.0854C3.85353 10.1309 3.80288 10.1596 3.74936 10.1612C3.72045 10.1555 3.70076 10.1321 3.67923 10.1141C3.65381 10.1323 3.6171 10.1434 3.6048 10.1748C3.60664 10.1983 3.61197 10.2217 3.61874 10.2445C3.64294 10.2689 4.20807 10.7106 4.21833 10.7173C4.24006 10.72 4.262 10.7188 4.28415 10.719C4.27574 10.729 4.25585 10.7374 4.26672 10.753C4.62331 11.0108 4.47157 10.8564 4.64464 10.7258C4.67376 10.7052 4.66658 10.6667 4.66227 10.6366C4.60527 10.5498 4.07479 10.0837 4.04116 10.0618C4.02024 10.0618 4.0022 10.0774 3.98231 10.0827ZM2.36544 10.085C2.33878 10.0983 2.31069 10.111 2.28751 10.1303C2.22702 10.25 1.84049 11.0342 1.82306 11.174C1.91534 11.1779 1.91021 11.2636 2.07138 11.313C2.10276 11.3118 2.12737 11.2866 2.14459 11.2624C2.1692 11.2228 2.22108 11.2072 2.2381 11.1623C2.32914 10.9085 2.73126 10.4963 2.62729 10.3259C2.54158 10.2636 2.45279 10.1918 2.41301 10.0901C2.40665 10.0679 2.3804 10.0788 2.36544 10.0847M3.35155 10.0958C3.34602 10.1225 3.34909 10.1516 3.37083 10.1705C3.38252 10.1489 3.38805 10.1253 3.38129 10.1014C3.3739 10.0999 3.35893 10.0973 3.35155 10.0958ZM3.46884 10.0979C3.46966 10.1038 3.4711 10.1155 3.47213 10.1215C3.48074 10.1253 3.48955 10.1294 3.49837 10.1335C3.49796 10.127 3.49714 10.1143 3.49673 10.1077C3.4873 10.1044 3.47807 10.1009 3.46884 10.0979ZM2.89612 10.1348C2.87439 10.1493 2.87849 10.1776 2.88997 10.1975C2.91396 10.2162 2.94246 10.2006 2.96112 10.1824C2.95005 10.1559 2.92585 10.1344 2.89612 10.1348ZM2.11096 10.2117C1.85218 10.3349 1.96578 10.2457 1.61349 10.7499C1.60591 10.7604 1.51527 10.9193 1.54685 10.9564C1.60324 11.0093 1.6625 11.0602 1.73017 11.0985C1.74637 11.1022 1.76339 11.1012 1.77979 11.1016C2.01376 10.6716 2.23235 10.1897 2.23584 10.1532C2.19114 10.1653 2.15136 10.1893 2.11096 10.2117ZM3.09913 10.167C3.10692 10.185 3.11369 10.2236 3.14096 10.2166C3.16023 10.1922 3.1182 10.1729 3.09913 10.167ZM3.23364 10.184C3.19735 10.2158 3.248 10.2783 3.28819 10.251C3.31526 10.2178 3.27261 10.1557 3.23364 10.184ZM11.0455 10.2027C11.0459 10.2164 11.0465 10.2301 11.0477 10.2441C11.0619 10.2357 11.0684 10.2211 11.0732 10.2061C11.0662 10.2053 11.0522 10.2037 11.0455 10.2027ZM3.03002 10.2859C3.06632 10.2759 3.06837 10.234 3.0493 10.2074C3.03392 10.2271 2.99927 10.2677 3.03002 10.2859ZM3.4955 10.2295C3.45798 10.2469 3.41943 10.2621 3.3819 10.2798C3.40384 10.4541 3.39789 10.3749 3.65237 10.6417C3.66734 10.6579 3.68784 10.6669 3.70856 10.6735C3.69318 10.5752 3.6091 10.2648 3.57486 10.24C3.55435 10.2189 3.52093 10.217 3.4955 10.2295ZM2.67158 10.3296C2.66461 10.3544 2.67343 10.3802 2.67671 10.405C2.71116 10.3712 2.73023 10.3259 2.7532 10.2843C2.71957 10.2793 2.69517 10.3105 2.67158 10.3296ZM3.31341 10.3068C3.32489 10.3197 3.33351 10.3415 3.35278 10.3437C3.36919 10.3298 3.35032 10.305 3.3452 10.2888C3.33453 10.2945 3.32387 10.3007 3.31341 10.3068ZM2.79011 10.2949C2.7737 10.3156 2.6845 10.4424 2.68799 10.478C2.6886 10.4883 2.71936 10.7756 2.73392 10.8256C2.77063 10.7754 2.87746 10.5221 2.90699 10.4311C2.88853 10.2777 2.85696 10.3173 2.79011 10.2949ZM3.25148 10.314C3.07903 10.3341 2.99414 10.3306 2.99414 10.3306C2.96892 10.3558 2.95579 10.3911 2.94451 10.4245C2.94349 10.4776 3.16249 11.369 3.16536 11.3791C3.21868 11.5378 3.25436 11.5368 3.31977 11.508C3.37042 11.5046 3.41532 11.4709 3.4672 11.4867C3.59762 11.5324 3.51744 11.1029 3.39913 10.5412C3.3657 10.3761 3.39051 10.4294 3.2886 10.3343C3.27732 10.3261 3.26686 10.3115 3.25148 10.314ZM3.64191 10.305C3.66344 10.4426 3.71307 10.5738 3.74649 10.7089C3.75346 10.7467 4.08852 11.0981 4.20623 11.1377C4.26221 11.1201 4.31573 11.0934 4.35981 11.0543C4.38483 11.0132 4.43281 10.9895 4.4486 10.9429C4.41272 10.9195 4.37991 10.8916 4.36002 10.8531C4.32947 10.8287 4.29932 10.7979 4.25893 10.792C4.25462 10.7577 4.22448 10.7387 4.19269 10.7342C4.16317 10.6841 3.68784 10.3113 3.64191 10.305ZM2.92114 10.3232C2.92298 10.3382 2.92503 10.3534 2.9275 10.3683C2.94 10.3567 2.948 10.3415 2.95477 10.3261C2.94636 10.3255 2.92955 10.324 2.92114 10.3232ZM1.69634 10.4196C1.64938 10.4475 1.45499 10.5404 1.43612 10.5525C1.39306 10.5709 1.36558 10.6128 1.32108 10.629C1.22102 10.6536 1.39818 10.7901 1.42136 10.8328C1.49149 10.9806 1.71172 10.5603 1.72033 10.55C1.74268 10.5189 1.78143 10.5012 1.79661 10.4645C1.80973 10.4313 1.82429 10.3983 1.83208 10.3632C1.78308 10.3712 1.74063 10.3989 1.69634 10.4196ZM10.5697 10.4737C10.5794 10.5 10.5864 10.5271 10.5896 10.5551C10.6282 10.5748 10.663 10.534 10.6985 10.5221C10.6967 10.4922 10.6846 10.4606 10.6544 10.4489C10.6237 10.429 10.5948 10.4582 10.5697 10.4737ZM3.41573 10.4559C3.41799 10.5213 3.50001 11.0998 3.55579 11.3298C3.61587 11.4687 3.53241 11.4972 3.84492 11.375C3.85086 11.3555 3.85784 11.3364 3.8687 11.3194C3.85086 11.2694 3.86337 11.2152 3.84717 11.165C3.74813 10.848 3.7873 10.7832 3.59618 10.6208C3.53426 10.5677 3.48607 10.4988 3.41573 10.4559ZM2.91601 10.5C2.71219 10.9236 2.74253 10.88 2.74951 10.9677C2.75935 11.0381 2.79277 11.3528 2.8383 11.4916C2.8871 11.5413 3.10446 11.5302 3.15224 11.5232C3.16023 11.3465 3.00767 10.8691 2.92996 10.5022C2.92647 10.5018 2.9195 10.5006 2.91601 10.5ZM2.58628 10.621C2.49483 10.7666 2.17555 11.2571 2.16489 11.3481C2.53768 11.5091 2.41444 11.4623 2.64062 11.0577C2.75976 10.8026 2.69845 10.8648 2.66359 10.524C2.6236 10.5422 2.60863 10.5865 2.58628 10.621ZM10.6142 10.5877C10.6007 10.5974 10.6167 10.6216 10.6306 10.6113C10.6436 10.6011 10.6284 10.5771 10.6142 10.5877ZM11.1396 10.7379C11.1222 10.7559 11.1138 10.8344 11.1658 10.8752C11.1876 10.8941 11.2183 10.8851 11.2446 10.8896C11.2653 10.8986 11.284 10.9119 11.3043 10.9224C11.3116 10.7696 11.3137 10.77 11.2714 10.7198C11.2274 10.7233 11.1829 10.729 11.1396 10.7379ZM3.78566 10.8115C3.79263 10.8857 3.85825 11.1693 3.92427 11.311C3.96098 11.3159 3.98866 11.2921 4.01901 11.2771C4.06535 11.2708 4.0955 11.2327 4.13343 11.2093C4.1443 11.1859 4.17014 11.1689 4.07602 11.07C4.06556 11.0577 3.82339 10.825 3.78566 10.8115ZM2.65518 11.0739C2.6437 11.1002 2.50918 11.3452 2.51287 11.4627C2.56167 11.475 2.7128 11.5128 2.78088 11.505C2.77739 11.4664 2.77903 11.4277 2.78396 11.3893C2.78601 11.3709 2.73187 10.9733 2.73003 10.9546C2.68553 10.9792 2.67897 11.0335 2.65518 11.0739ZM11.0748 11.0069C11.1097 11.0518 11.2468 11.1404 11.2891 11.151C11.2924 11.125 11.2967 11.0992 11.2979 11.0731C11.2883 11.052 11.2702 11.0342 11.2505 11.0221C11.1082 10.9936 11.1816 10.9983 11.1201 10.9675C11.0955 10.9624 11.0877 10.9923 11.0748 11.0069ZM11.6381 11.2039C11.5809 11.3467 11.5571 11.3682 11.7332 11.4408C11.7519 11.4301 11.763 11.4104 11.7611 11.3889C11.7568 11.3307 11.8251 11.31 11.8427 11.2605C11.8194 11.2601 11.796 11.2597 11.7728 11.2589C11.7615 11.2458 11.7515 11.2318 11.7382 11.2212C11.7053 11.2124 11.6711 11.2115 11.6381 11.2039ZM9.00168 11.5238C9.07632 11.564 9.16183 11.5864 9.24672 11.5788C9.21699 11.5306 9.05663 11.5199 9.00168 11.5238ZM13.5371 11.546C13.5344 11.6009 13.5798 11.9385 13.6884 11.9682C13.6928 11.9508 13.7352 11.6979 13.7313 11.548C13.6679 11.5318 13.5999 11.5236 13.5371 11.546ZM13.2646 11.5694C13.32 11.6725 13.273 11.7053 13.4211 11.838C13.4467 11.8653 13.4918 11.8472 13.5174 11.8757C13.5349 11.8944 13.5552 11.9095 13.5822 11.9075C13.5539 11.7291 13.492 11.6352 13.4842 11.5956C13.4635 11.5499 13.5062 11.5368 13.3148 11.5454C13.2947 11.5454 13.2779 11.5558 13.2646 11.5694ZM13.8256 11.5665C13.7617 11.5724 13.7184 11.9294 13.7174 11.9717C13.7323 11.9778 13.7471 11.9866 13.7639 11.9877C13.7938 11.9758 13.9956 11.6903 14.0153 11.6134C13.9534 11.5938 13.8921 11.5632 13.8256 11.5665ZM13.1247 11.636C13.126 11.6811 13.1627 11.7115 13.1971 11.735C13.2383 11.7414 13.2783 11.7529 13.3154 11.773C13.2943 11.7086 13.2291 11.5776 13.1617 11.5771C13.1381 11.5866 13.1155 11.6083 13.1247 11.636ZM14.0795 11.6571C13.9942 11.7256 13.8051 11.9905 13.7899 12.0297C13.9292 12.0551 13.7994 12.0436 13.971 12.0925C13.9921 12.1015 14.0038 12.1249 14.0249 12.1339C14.142 12.1536 14.0407 12.1214 14.1344 12.1763C14.2778 12.2153 14.1515 12.1665 14.2657 12.2341C14.3481 11.9549 14.3354 11.8488 14.3436 11.798C14.3543 11.7418 14.1295 11.6225 14.0795 11.6571ZM12.7392 11.7437C12.6484 11.8013 12.7712 11.9559 12.8288 12.0758C12.8442 12.1043 12.8615 12.14 12.8975 12.1452C12.9025 12.0049 12.8924 11.865 12.8736 11.726C12.8545 11.7188 12.8364 11.7082 12.8161 11.7061C12.7889 11.7149 12.7634 11.7289 12.7392 11.7437ZM12.9285 11.7693C12.9109 11.8156 12.9226 12.1597 12.9373 12.2272C12.9642 12.2635 13.0128 12.2725 13.0458 12.3C13.0673 12.356 13.2293 12.406 13.2533 12.3953C13.2578 12.3676 13.2451 12.3309 13.2689 12.3104C13.2974 12.319 13.3239 12.3357 13.355 12.3342C13.3602 12.3063 13.3552 12.2737 13.3737 12.2503C13.4071 12.2452 13.4276 12.2883 13.4639 12.2805C13.4705 12.2565 13.475 12.2321 13.4832 12.2087C13.5008 12.2026 13.5193 12.2079 13.5373 12.2089C13.5049 12.1117 13.4565 12.0156 13.3761 11.9493C13.3029 11.921 13.3278 11.9643 13.2648 11.8874C13.168 11.8755 13.2195 11.8876 13.1498 11.8404C13.1278 11.8306 13.1024 11.8339 13.0807 11.824C13.0563 11.8068 13.0396 11.7758 13.0068 11.7736C12.9812 11.7713 12.9531 11.7566 12.9285 11.7693ZM10.2293 11.799C10.2462 11.8259 10.2667 11.8529 10.2991 11.8614C10.2997 11.8417 10.3009 11.822 10.2993 11.8023C10.2775 11.7904 10.2523 11.7955 10.2293 11.799ZM14.4178 11.7976C14.3331 11.9657 14.3863 11.8493 14.2925 12.2372C14.3686 12.2702 14.3692 12.3393 14.4303 12.3076C14.4904 12.2097 14.5608 11.9536 14.5624 11.9358C14.5532 11.9114 14.5474 11.8806 14.5212 11.8689C14.4828 11.8507 14.4554 11.8169 14.4178 11.7976ZM12.4798 11.9424C12.5118 11.9729 12.8018 12.1513 12.8457 12.1566C12.8342 12.1099 12.6642 11.8226 12.6258 11.8203C12.5729 11.8548 12.5157 11.8888 12.4798 11.9424ZM14.6297 11.9715C14.6247 11.9817 14.4629 12.2497 14.4691 12.34C14.5526 12.31 14.5035 12.3139 14.6893 12.1899C14.7131 12.1624 14.7402 12.1378 14.7658 12.1119C14.7796 12.0758 14.6754 11.9743 14.6297 11.9715ZM13.4947 12.0398C13.5539 12.1864 13.5638 12.1952 13.582 12.194C13.605 12.1839 13.6249 12.1681 13.6472 12.1566C13.6392 12.1246 13.6327 12.0918 13.6163 12.0631C13.5956 12.0504 13.5683 12.0596 13.5474 12.0469C13.5306 12.0379 13.5127 12.0287 13.4947 12.0398ZM13.6807 12.1716C13.6831 12.1767 13.688 12.1872 13.6903 12.1923C13.6954 12.1919 13.7057 12.1909 13.7106 12.1905C13.7198 12.1732 13.7307 12.1573 13.744 12.1427C13.7426 12.137 13.7403 12.1257 13.7391 12.1199C13.711 12.1253 13.6946 12.1488 13.6807 12.1716ZM13.7715 12.164C13.7887 12.227 13.784 12.2095 13.8347 12.2089C13.8359 12.1979 13.8375 12.187 13.8392 12.1761C13.8168 12.1702 13.7943 12.1659 13.7715 12.164ZM14.7051 12.2157C14.6387 12.2709 14.5105 12.3377 14.4779 12.3836C14.5048 12.3992 14.5417 12.4041 14.5562 12.4351C14.5661 12.4476 14.571 12.4685 14.5899 12.4708C14.6001 12.4714 14.8616 12.4166 14.9729 12.3443C14.961 12.3041 14.8601 12.1577 14.8179 12.1655C14.7765 12.1702 14.7394 12.1935 14.7051 12.2157ZM13.912 12.3504C13.8135 12.3875 13.9472 12.6414 14.0309 12.6158C14.1588 12.5825 14.2035 12.5653 14.2181 12.4343C14.1716 12.3799 13.9649 12.3299 13.912 12.3504ZM13.5033 12.4115C13.4719 12.4531 13.4414 12.4958 13.418 12.5426C13.4756 12.5637 13.5121 12.6219 13.575 12.632C13.5775 12.6219 13.6109 12.4525 13.6081 12.3678C13.5666 12.3449 13.5289 12.382 13.5033 12.4115ZM13.3198 12.4737C13.3384 12.4917 13.3591 12.5073 13.3821 12.5204C13.4231 12.4823 13.451 12.4331 13.4789 12.3853C13.42 12.4007 13.3651 12.4333 13.3198 12.4737ZM14.8665 12.4287C14.7888 12.4474 14.7117 12.4696 14.6352 12.4927C14.6873 12.6486 14.6945 12.5864 14.7256 12.6404C14.7353 12.6642 14.7375 12.6904 14.7488 12.714C14.8273 12.8069 14.7584 12.6869 14.8388 12.8661C14.879 12.8631 15.1117 12.7148 15.1456 12.6523C15.0283 12.3439 15.0328 12.4158 14.8665 12.4287ZM14.2536 12.4632C14.2554 12.4745 14.2577 12.486 14.2599 12.4976C14.2694 12.4884 14.2788 12.4794 14.2884 12.4702C14.2765 12.4677 14.2649 12.4652 14.2536 12.4632ZM14.2493 12.5571C14.2753 12.554 14.3009 12.5479 14.3268 12.543C14.3272 12.5313 14.3276 12.5196 14.3282 12.5083C14.2954 12.5085 14.2587 12.5223 14.2493 12.5571ZM14.3602 12.5971C14.3471 12.634 14.3161 12.6699 14.3274 12.7113C14.3543 12.7 14.3822 12.6896 14.4059 12.6724C14.4232 12.6426 14.4074 12.6073 14.4016 12.5766C14.3854 12.5784 14.3655 12.578 14.3602 12.5971ZM14.2251 12.6073C14.2023 12.635 14.1931 12.6717 14.1974 12.7072C14.2105 12.7255 14.2372 12.7275 14.2581 12.7259C14.2979 12.6953 14.3053 12.6406 14.3208 12.5957C14.2897 12.5805 14.2526 12.5885 14.2251 12.6073ZM14.1074 12.6584C14.1269 12.667 14.1467 12.675 14.1668 12.6824C14.1724 12.6605 14.1746 12.6379 14.1746 12.6153C14.1482 12.6201 14.1135 12.6272 14.1074 12.6584ZM14.8749 12.8924C14.853 12.9069 14.8552 12.9365 14.8523 12.9596C14.8577 12.9906 14.8923 13.0113 14.888 13.0456C14.8915 13.0724 14.877 13.1063 14.8987 13.128C14.9399 13.1858 15.1585 12.9931 15.2233 12.9545C15.2424 12.9455 15.2356 12.9199 15.2368 12.903C15.2245 12.8397 15.2005 12.7796 15.1782 12.7193C15.0679 12.7601 14.9737 12.8311 14.8749 12.8924ZM14.545 12.8786C14.5058 12.9 14.3996 13.0257 14.4486 13.0402C14.4925 13.0527 14.5448 13.0736 14.5866 13.0443C14.6079 13.0312 14.6372 13.0162 14.6389 12.9881C14.6294 12.932 14.5923 12.8575 14.545 12.8786ZM15.1593 13.0519C15.105 13.079 15.0478 13.104 15.0063 13.1501C15.13 13.21 15.2848 13.1955 15.2949 13.1959C15.2897 13.1364 15.2748 13.0784 15.2696 13.0193C15.2307 13.0209 15.1958 13.0406 15.1593 13.0519ZM11.9461 13.1142C11.9442 13.168 11.9418 13.2221 11.9473 13.2758C11.9814 13.2707 12.0142 13.2486 12.0492 13.2576C12.0767 13.2644 12.1058 13.2549 12.1294 13.241C12.1491 13.2151 12.152 13.1811 12.1628 13.1512C12.144 13.1294 12.1286 13.1048 12.1083 13.0845C12.0154 13.0308 11.9535 13.0091 11.9461 13.1142ZM14.6256 13.0546C14.6272 13.0607 14.6307 13.0728 14.6325 13.079C14.6456 13.0798 14.659 13.0806 14.6725 13.0821C14.6729 13.0683 14.6735 13.0548 14.6742 13.0415C14.6573 13.0439 14.6411 13.0484 14.6256 13.0546ZM14.4465 13.0675C14.4207 13.0812 14.4299 13.1302 14.4615 13.128C14.4773 13.1188 14.5023 13.1089 14.5001 13.0872C14.4837 13.0769 14.4654 13.0698 14.4465 13.0675ZM14.4586 13.1631C14.4779 13.1938 14.4615 13.1844 14.6791 13.2703C14.6887 13.2748 14.6975 13.2734 14.7055 13.2658C14.708 13.1138 14.6875 13.1052 14.561 13.1056C14.5249 13.1204 14.4927 13.144 14.4586 13.1631ZM14.9409 13.1868C14.8718 13.1891 14.9135 13.2689 14.904 13.3611C14.9157 13.372 15.1534 13.4885 15.3078 13.5121C15.3111 13.3259 15.3248 13.2494 15.1735 13.2237C15.0966 13.209 15.0203 13.179 14.9409 13.1868ZM14.4726 13.2086C14.4562 13.2369 14.4203 13.3513 14.5113 13.3925C14.5579 13.3652 14.6034 13.3365 14.6512 13.3113C14.6512 13.3064 14.6512 13.297 14.6514 13.2922C14.5936 13.2602 14.5304 13.2402 14.4726 13.2086ZM12.0191 13.3117C11.9106 13.3289 11.9779 13.5613 11.9961 13.6076C12.0105 13.6412 12.2442 13.6909 12.3129 13.6894C12.21 13.5654 12.1103 13.5715 12.0986 13.4581C12.1036 13.4001 12.1179 13.3433 12.1251 13.2855C12.088 13.2863 12.0541 13.3015 12.0191 13.3117ZM14.5493 13.4124C14.5493 13.4635 14.6108 13.5182 14.659 13.4815C14.6877 13.437 14.6945 13.3821 14.6914 13.3302C14.6418 13.3531 14.5944 13.3816 14.5493 13.4124ZM14.9135 13.3995C14.8302 13.6677 14.9151 13.4977 14.8392 13.6324C14.8355 13.656 14.8376 13.6806 14.8327 13.7046C14.824 13.7235 14.8128 13.7411 14.8056 13.7608C14.8156 13.7645 15.1515 13.8615 15.245 13.8385C15.27 13.8071 15.3102 13.6396 15.2805 13.5717C15.1454 13.5258 15.2715 13.524 14.9135 13.3995ZM14.2979 13.6769C14.3071 13.7278 14.401 13.8853 14.4266 13.9191C14.61 13.7448 14.496 13.704 14.2979 13.6769ZM12.0322 13.6913C12.0154 13.7231 12.0521 13.8867 12.1194 13.9062C12.193 13.9037 12.4661 13.881 12.4604 13.7864C12.4292 13.7282 12.1003 13.6878 12.0322 13.6913ZM14.159 13.7946C14.1244 13.8184 14.0725 13.7983 14.1027 14.0079C14.3124 14.0354 14.2911 14.0391 14.3604 13.9872C14.4164 13.9332 14.394 13.9359 14.3727 13.8928C14.3385 13.8332 14.3092 13.7702 14.2716 13.7128C14.232 13.7368 14.2011 13.7737 14.159 13.7946ZM14.7328 13.8621C14.708 13.876 14.6936 13.9482 14.7113 13.9667C14.7492 14.0091 14.7742 14.0616 14.8146 14.1024C15.2944 14.1773 15.1329 14.093 15.2358 13.9158C15.0855 13.8418 14.8472 13.7948 14.7906 13.7874C14.7771 13.8164 14.7599 13.8443 14.7328 13.8621ZM12.4587 13.8857C12.3831 13.9499 12.2621 14.1803 12.2551 14.1904C12.235 14.2544 12.3763 14.4002 12.3995 14.4184C12.3995 14.4184 12.6673 14.1276 12.7618 13.9954C12.7052 13.9671 12.6599 13.9214 12.6057 13.8887C12.5668 13.8471 12.5034 13.8637 12.4587 13.8857ZM12.8904 13.9246C12.7985 13.9931 12.5149 14.3311 12.471 14.4155C12.4029 14.4965 12.5963 14.6368 12.6078 14.6442C12.6527 14.6604 12.6839 14.6112 12.7255 14.6025C13.1332 14.3105 13.0435 14.4867 12.9726 13.8793C12.9408 13.8851 12.9158 13.9068 12.8904 13.9246ZM12.2042 13.9472C12.1766 13.9591 12.1438 13.9605 12.1226 13.9841C12.1466 14.0352 12.1661 14.0889 12.1971 14.1367C12.2342 14.1609 12.3703 13.9562 12.388 13.8969C12.3252 13.9072 12.2619 13.9197 12.2042 13.9472ZM13.0189 13.9146C13.0146 13.9679 13.0528 14.3253 13.0739 14.3516C13.1159 14.3183 13.2798 14.1898 13.3191 14.1576C13.3169 14.151 13.3124 14.1381 13.3103 14.1317C13.1869 14.1075 13.2736 14.1194 13.1321 14.0226C13.086 13.9753 13.1389 13.9804 13.0189 13.9146ZM14.0596 14.0065C14.0701 13.9835 14.0719 13.9583 14.0713 13.9337C14.0436 13.9445 14.0356 13.987 14.0596 14.0065ZM14.6356 13.9933C14.6196 14.0214 14.5999 14.0471 14.5782 14.0708C14.6387 14.0842 14.701 14.0903 14.7631 14.0879C14.7467 14.0415 14.7016 14.0126 14.685 13.9658C14.6674 13.9724 14.6446 13.9747 14.6356 13.9933ZM13.7565 14.0444C13.7184 14.0637 13.6747 14.0678 13.6368 14.0872C13.6862 14.0987 13.742 14.1075 13.7904 14.0879C13.8176 14.0768 13.8102 14.0442 13.81 14.0214C13.7916 14.0276 13.7737 14.0354 13.7565 14.0444ZM14.1016 14.0438C14.1008 14.0565 14.1004 14.0692 14.1002 14.0819C14.1297 14.0823 14.159 14.0795 14.1884 14.0753C14.19 14.0694 14.1931 14.0571 14.1945 14.0509C14.1638 14.045 14.1326 14.0436 14.1016 14.0438ZM14.54 14.1026C14.5413 14.1408 14.7523 14.5449 14.8247 14.6013C14.951 14.4756 15.0619 14.425 14.8007 14.136C14.772 14.126 14.6087 14.0993 14.54 14.1026ZM14.448 14.16C14.4295 14.1736 14.4158 14.1924 14.3977 14.2064C14.3692 14.2211 14.335 14.2222 14.3096 14.2427C14.2839 14.263 14.2538 14.2759 14.2232 14.2874C14.2565 14.3782 14.4843 14.6692 14.5109 14.7137C14.5429 14.7385 14.5671 14.7912 14.6128 14.7865C14.74 14.7036 14.7535 14.678 14.7595 14.6257C14.7408 14.5144 14.595 14.3054 14.5076 14.1385C14.4876 14.1451 14.467 14.151 14.448 14.16ZM14.8644 14.1397C14.8653 14.2205 14.9957 14.329 15.0225 14.3618C15.0554 14.3255 15.1142 14.2394 15.1158 14.1908C15.0211 14.1807 15.0576 14.1586 14.8644 14.1397ZM13.3009 14.2205C13.2498 14.2482 13.2191 14.3026 13.1637 14.3233C13.0643 14.3936 13.0571 14.3717 13.0967 14.5806C13.1293 14.5519 13.3667 14.2607 13.3942 14.2062C13.3628 14.2064 13.3275 14.1994 13.3009 14.2205ZM13.3485 14.3253C13.3396 14.3354 13.1044 14.6085 13.1077 14.6641C13.1167 14.9062 13.168 15.0477 13.4106 15.043C13.4141 15.0102 13.4196 14.9776 13.4323 14.947C13.4401 14.8695 13.4776 14.2952 13.4414 14.2263C13.4116 14.2607 13.3735 14.2868 13.3485 14.3253ZM13.4969 14.2734C13.4897 14.3026 13.4584 14.8109 13.4789 15.0367C13.4914 15.0442 13.5039 15.0518 13.5168 15.0598C13.5289 15.0311 13.5496 15.0038 13.5465 14.9712C13.5492 14.9456 13.5385 14.9105 13.5658 14.8952C13.6468 14.8775 13.5908 14.9626 13.6247 15.0143C13.6364 15.0336 13.6392 15.0559 13.6437 15.0777C13.6739 15.0801 13.7059 15.0721 13.7262 15.0483C13.7565 14.9686 13.8191 14.5802 13.817 14.5066C13.7619 14.4184 13.5511 14.2624 13.541 14.2535C13.5238 14.2501 13.501 14.2529 13.4969 14.2734ZM14.1615 14.3067C14.0984 14.3315 14.0961 14.3249 14.0924 14.425C14.0973 14.7543 14.0655 14.7098 14.1211 14.7672C14.1314 14.7766 14.2815 14.9372 14.3389 14.9329C14.3789 14.9349 14.5548 14.8609 14.5247 14.814C14.4966 14.7723 14.4871 14.7213 14.4554 14.6821C14.4492 14.6719 14.222 14.3429 14.1818 14.304C14.1767 14.3046 14.1664 14.306 14.1615 14.3067ZM13.7036 14.3339C13.7381 14.379 13.7719 14.4317 13.8256 14.4559C13.8353 14.4194 13.8467 14.3821 13.8459 14.344C13.8117 14.2987 13.7498 14.3368 13.7036 14.3339ZM13.8703 14.3876C13.8662 14.4242 13.8509 14.4609 13.8543 14.4978C13.8627 14.5078 14.0149 14.669 14.0575 14.6858C14.0666 14.5654 14.0559 14.4447 14.0633 14.3245C13.9659 14.3352 13.8716 14.3071 13.8703 14.3876ZM12.8584 14.5441C12.7944 14.595 12.7177 14.6364 12.6767 14.71C12.7743 14.7629 12.8266 14.8416 12.8971 14.8125C13.1405 14.581 13.0552 14.6124 13.044 14.4159C12.9757 14.4492 12.9207 14.5019 12.8584 14.5441ZM13.8539 14.5392C13.8357 14.5937 13.7879 14.8531 13.7904 15.0734C13.9927 15.0768 14.0077 15.0387 14.0401 15.0164C14.0653 14.7986 14.1156 14.741 13.8539 14.5392ZM13.0351 14.7118C12.9929 14.7529 12.9814 14.8142 12.9379 14.8548C12.958 14.8863 13.0122 14.9276 13.0995 14.9425C13.094 14.8429 13.1223 14.9516 13.0825 14.6913C13.0657 14.6952 13.0474 14.6987 13.0351 14.7118ZM14.0977 14.7844C14.0723 14.865 14.0994 14.9472 14.0996 15.0291C14.1504 15.0164 14.204 15.0055 14.2482 14.976C14.2505 14.9657 14.2132 14.879 14.0977 14.7844Z" fill="#EF4444"/>
</g>
</svg>
